<svg xmlns="http://www.w3.org/2000/svg" xmlns:xlink="http://www.w3.org/1999/xlink" width="1404.19" height="487.002" viewBox="0 0 1404.19 487.002"><defs><linearGradient id="a" x1="0.5" y1="-1.114" x2="0.5" y2="1.491" gradientUnits="objectBoundingBox"><stop offset="0" stop-color="#49a4d9"/><stop offset="1" stop-color="#2d69a2"/></linearGradient><linearGradient id="b" x1="0.5" y1="-0.699" x2="0.5" y2="1.075" xlink:href="#a"/><linearGradient id="d" x1="0.5" y1="-0.753" x2="0.5" y2="1.407" xlink:href="#a"/><linearGradient id="f" x1="0.5" y1="-0.814" x2="0.5" y2="1.09" xlink:href="#a"/></defs><g transform="translate(-257.905 -716.338)"><path d="M534.776,1104.677a142.72,142.72,0,0,1-53.231-9.745,129.823,129.823,0,0,1-42.388-26.918,123.969,123.969,0,0,1-28.137-40.928,129.457,129.457,0,0,1-10.232-51.768,127.97,127.97,0,0,1,10.232-51.4,126.127,126.127,0,0,1,28.259-41.049,129.262,129.262,0,0,1,42.511-27.162,142.039,142.039,0,0,1,52.986-9.744,143.681,143.681,0,0,1,53.35,9.744,126.669,126.669,0,0,1,80.879,119.612,129.44,129.44,0,0,1-10.232,51.768,123.969,123.969,0,0,1-28.137,40.928,129.531,129.531,0,0,1-42.51,26.918A143.68,143.68,0,0,1,534.776,1104.677Zm.243-9.014a38.037,38.037,0,0,0,23.752-7.918q10.352-7.914,17.54-23.263t10.841-37.761a322.252,322.252,0,0,0,3.653-51.4q0-28.742-3.776-51.036t-10.84-37.637q-7.068-15.35-17.54-23.387a39.643,39.643,0,0,0-47.87,0q-10.356,8.04-17.3,23.387t-10.6,37.637a318.1,318.1,0,0,0-3.654,51.036q0,57.737,14.251,89.04T535.019,1095.663Z" fill="url(#a)"/><path d="M944.416,1121.731a58.143,58.143,0,0,1-10.356,33.618q-10.355,15.1-29.478,25.7T858.3,1197.494q-27.167,5.844-60.538,5.846-64.071,0-95.616-13.033t-31.548-34.958a31.69,31.69,0,0,1,3.654-14.983,46.138,46.138,0,0,1,10.354-12.912,83.056,83.056,0,0,1,15.956-10.962,139.419,139.419,0,0,1,20.464-8.892q-16.326-6.093-23.875-17.053a43.554,43.554,0,0,1-7.552-25.335,52.964,52.964,0,0,1,3.655-19.854,64.82,64.82,0,0,1,9.866-16.81,93.95,93.95,0,0,1,14.251-14.129,161.178,161.178,0,0,1,16.81-11.816q-23.148-12.425-34.837-30.939a74.663,74.663,0,0,1-11.694-40.681,69.875,69.875,0,0,1,9.136-35.569,84.084,84.084,0,0,1,24.6-26.8,117.437,117.437,0,0,1,35.811-16.81,154.914,154.914,0,0,1,43-5.846,145.615,145.615,0,0,1,37.269,4.629,122.3,122.3,0,0,1,32.4,13.64L936.62,823.3l2.923.731v52.376l-55.055-2.923A86.02,86.02,0,0,1,905.56,899.8a69.424,69.424,0,0,1,7.428,31.914,72.33,72.33,0,0,1-8.28,34.226,81.752,81.752,0,0,1-23.143,27.041q-14.865,11.328-35.57,17.662a155.1,155.1,0,0,1-45.555,6.335,166.332,166.332,0,0,1-30.33-2.558,131.975,131.975,0,0,1-26.188-7.673,40.6,40.6,0,0,0-10.962,10.717,22.779,22.779,0,0,0-3.9,12.912q0,6.578,2.68,10.6a17.039,17.039,0,0,0,8.161,6.211,49.044,49.044,0,0,0,13.765,2.923q8.278.73,19.244.731h71.622q23.626,0,42.148,4.264t31.3,12.911a58.115,58.115,0,0,1,19.61,22.047Q944.414,1103.456,944.416,1121.731Zm-141.053,70.645q45.8,0,68.576-11.448t22.78-33.131q0-9.261-3.9-15.349a26.953,26.953,0,0,0-10.961-9.621,56.042,56.042,0,0,0-16.808-4.994,145,145,0,0,0-21.439-1.462q-12.422,0-26.676.487t-28.747.486q-14.495,0-28.623-1.1a156.431,156.431,0,0,1-26.553-4.264A70.332,70.332,0,0,0,720.9,1124.9q-4.511,7.311-4.507,17.541,0,25.334,22.9,37.637T803.363,1192.376Zm-2.923-186.119q19.731,0,28.626-18.393t8.89-56.151q0-37.758-8.769-56.4T800.2,856.679q-20.709,0-29.235,18.758t-8.527,56.276q0,37.762,8.771,56.151T800.44,1006.257Z" fill="url(#b)"/><path d="M1073.656,1104.677a142.715,142.715,0,0,1-53.23-9.745,129.819,129.819,0,0,1-42.387-26.918,123.97,123.97,0,0,1-28.137-40.928,129.44,129.44,0,0,1-10.233-51.768,127.954,127.954,0,0,1,10.233-51.4,126.11,126.11,0,0,1,28.258-41.049,129.262,129.262,0,0,1,42.511-27.162,142.037,142.037,0,0,1,52.985-9.744,143.686,143.686,0,0,1,53.351,9.744,126.664,126.664,0,0,1,80.879,119.612q0,28.019-10.231,51.768a123.97,123.97,0,0,1-28.137,40.928,129.545,129.545,0,0,1-42.511,26.918A143.685,143.685,0,0,1,1073.656,1104.677Zm.242-9.014a38.04,38.04,0,0,0,23.753-7.918q10.354-7.914,17.541-23.263t10.84-37.761a322.129,322.129,0,0,0,3.654-51.4q0-28.742-3.775-51.036t-10.84-37.637q-7.07-15.35-17.541-23.387a39.644,39.644,0,0,0-47.871,0q-10.358,8.04-17.3,23.387t-10.6,37.637a318.091,318.091,0,0,0-3.654,51.036q0,57.737,14.25,89.04T1073.9,1095.663Z" fill="url(#a)"/><path d="M1315.934,1104.677a89.61,89.61,0,0,1-28.5-4.385,66.252,66.252,0,0,1-23.022-13.033,59.822,59.822,0,0,1-15.469-21.56q-5.607-12.91-5.6-30.209V861.552h-31.182v-2.923l34.593-17.3,66.75-48.723h4.384v59.684h74.058v9.258h-74.058V1035.49q0,19.494,8.649,29.357t24.727,9.865a94.278,94.278,0,0,0,25.58-3.288,65.052,65.052,0,0,0,19.731-8.893l2.436,3.654a102.424,102.424,0,0,1-33.5,26.8,112.115,112.115,0,0,1-23.021,8.525A107.221,107.221,0,0,1,1315.934,1104.677Z" fill="url(#d)"/><path d="M1527.865,1104.677a142.711,142.711,0,0,1-53.23-9.745,129.8,129.8,0,0,1-42.387-26.918,123.97,123.97,0,0,1-28.137-40.928,129.44,129.44,0,0,1-10.234-51.768,127.953,127.953,0,0,1,10.234-51.4,126.11,126.11,0,0,1,28.258-41.049,129.267,129.267,0,0,1,42.51-27.162,142.046,142.046,0,0,1,52.986-9.744,143.686,143.686,0,0,1,53.351,9.744,126.664,126.664,0,0,1,80.879,119.612,129.455,129.455,0,0,1-10.231,51.768,123.971,123.971,0,0,1-28.137,40.928,129.547,129.547,0,0,1-42.511,26.918A143.685,143.685,0,0,1,1527.865,1104.677Zm.242-9.014a38.042,38.042,0,0,0,23.753-7.918q10.353-7.914,17.54-23.263t10.841-37.761a322.129,322.129,0,0,0,3.654-51.4q0-28.742-3.775-51.036t-10.841-37.637q-7.068-15.35-17.54-23.387a39.644,39.644,0,0,0-47.871,0q-10.358,8.04-17.3,23.387t-10.6,37.637a318.213,318.213,0,0,0-3.653,51.036q0,57.737,14.25,89.04T1528.107,1095.663Z" fill="url(#a)"/><path d="M371.185,848.64v219.251a144.207,144.207,0,0,1-7.43,47.019,118.455,118.455,0,0,1-21.8,38.612,131.322,131.322,0,0,1-35.2,28.868q-20.829,11.932-47.628,17.539l-1.217-4.872a112.694,112.694,0,0,0,16.444-16.444,92.275,92.275,0,0,0,12.059-19.489,105.979,105.979,0,0,0,7.43-23.143,140.133,140.133,0,0,0,2.557-27.893V894.439l-27.284-22.9v-3.9l99.394-21.681Z" fill="url(#f)"/><path d="M371.991,757.828c0,.438-.01.876-.025,1.309C371.011,795.679,330.5,823.3,330.5,823.3s-40.51-27.626-41.465-64.168c-.015-.433-.025-.871-.025-1.309a41.49,41.49,0,1,1,82.979,0Z" fill="#ff6602"/></g></svg>