<svg xmlns="http://www.w3.org/2000/svg" xmlns:xlink="http://www.w3.org/1999/xlink" width="114.086" height="483.591" viewBox="0 0 114.086 483.591"><defs><linearGradient id="a" x1="0.5" y1="-0.814" x2="0.5" y2="1.09" gradientUnits="objectBoundingBox"><stop offset="0" stop-color="#49a4d9"/><stop offset="1" stop-color="#2d69a2"/></linearGradient></defs><g transform="translate(-257.905 -716.338)"><path d="M371.185,848.64v219.251a144.207,144.207,0,0,1-7.43,47.019,118.455,118.455,0,0,1-21.8,38.612,131.322,131.322,0,0,1-35.2,28.868q-20.829,11.932-47.628,17.539l-1.217-4.872a112.694,112.694,0,0,0,16.444-16.444,92.275,92.275,0,0,0,12.059-19.489,105.979,105.979,0,0,0,7.43-23.143,140.133,140.133,0,0,0,2.557-27.893V894.439l-27.284-22.9v-3.9l99.394-21.681Z" fill="url(#a)"/><path d="M371.991,757.828c0,.438-.01.876-.025,1.309C371.011,795.679,330.5,823.3,330.5,823.3s-40.51-27.626-41.465-64.168c-.015-.433-.025-.871-.025-1.309a41.49,41.49,0,1,1,82.979,0Z" fill="#ff6602"/></g></svg>