<svg xmlns="http://www.w3.org/2000/svg" xmlns:xlink="http://www.w3.org/1999/xlink" width="48.359" height="55.062" viewBox="0 0 48.359 55.062">
  <defs>
    <filter id="Path_192" x="0" y="0" width="48.359" height="55.062" filterUnits="userSpaceOnUse">
      <feOffset dy="3" input="SourceAlpha"/>
      <feGaussianBlur stdDeviation="3" result="blur"/>
      <feFlood flood-opacity="0.78"/>
      <feComposite operator="in" in2="blur"/>
      <feComposite in="SourceGraphic"/>
    </filter>
    <clipPath id="clip-path">
      <rect id="Rectangle_186" data-name="Rectangle 186" width="15.208" height="15.208" fill="#fff" stroke="#707070" stroke-width="1"/>
    </clipPath>
  </defs>
  <g id="music_pin" data-name="music pin" transform="translate(-319 -475)">
    <g transform="matrix(1, 0, 0, 1, 319, 475)" filter="url(#Path_192)">
      <path id="Path_192-2" data-name="Path 192" d="M15.18,0a15.18,15.18,0,0,1,15.18,15.18c0,8.384-15.18,21.882-15.18,21.882S0,23.563,0,15.18A15.18,15.18,0,0,1,15.18,0Z" transform="translate(9 6)" fill="#b463c2"/>
    </g>
    <g id="Mask_Group_21" data-name="Mask Group 21" transform="translate(335.575 488.58)" clip-path="url(#clip-path)">
      <g id="music" transform="translate(0.053 0.073)">
        <g id="Group_346" data-name="Group 346">
          <path id="Path_196" data-name="Path 196" d="M.416,5.207A.877.877,0,0,0,.8,5.289a1.156,1.156,0,0,0,.246-.028.8.8,0,0,0,.694-.946h0L1.182,1.762l2.342-.511.413,1.893a1.106,1.106,0,0,0-.44.014.785.785,0,0,0-.7.929.754.754,0,0,0,.782.6,1.146,1.146,0,0,0,.245-.027.8.8,0,0,0,.693-.946h0L3.77.308A.393.393,0,0,0,3.3.006L.865.54a.392.392,0,0,0-.3.466l.6,2.742a1.106,1.106,0,0,0-.44.013,1,1,0,0,0-.549.3.7.7,0,0,0-.153.631.729.729,0,0,0,.4.516Zm3.308-.981c-.1.022-.434.07-.5-.234-.059-.268.2-.368.366-.4a.81.81,0,0,1,.17-.02.291.291,0,0,1,.32.236h0C4.147,4.109,3.824,4.2,3.723,4.226ZM3.349.452l.08.369-2.341.51L1,.962ZM.505,4.353a.582.582,0,0,1,.312-.159.81.81,0,0,1,.17-.02.291.291,0,0,1,.32.236h0c.066.3-.256.4-.357.421a.54.54,0,0,1-.343-.022A.285.285,0,0,1,.452,4.6.258.258,0,0,1,.505,4.353Zm0,0" transform="translate(0.002 0.002)" fill="#fff" stroke="#fff" stroke-width="0.132"/>
          <path id="Path_197" data-name="Path 197" d="M22.166,18.521a.39.39,0,0,0-.217-.208l-2.327-.9a.393.393,0,0,0-.508.224L18.1,20.25a1.092,1.092,0,0,0-.373-.234,1,1,0,0,0-.622-.054.7.7,0,0,0-.478.44.729.729,0,0,0,.046.649.965.965,0,0,0,.494.394,1.068,1.068,0,0,0,.387.076.739.739,0,0,0,.715-.482l.947-2.436,2.234.868-.7,1.81a1.093,1.093,0,0,0-.373-.234.785.785,0,0,0-1.1.385.729.729,0,0,0,.046.649.965.965,0,0,0,.493.394,1.071,1.071,0,0,0,.387.076.739.739,0,0,0,.715-.482l1.261-3.246A.39.39,0,0,0,22.166,18.521Zm-4.842,2.513a.539.539,0,0,1-.273-.208.286.286,0,0,1-.014-.263.258.258,0,0,1,.18-.173.383.383,0,0,1,.1-.012.7.7,0,0,1,.248.05.56.56,0,0,1,.277.2.262.262,0,0,1,.013.251c-.112.288-.435.189-.531.151Zm2.048-2.841.137-.352,2.234.868-.137.352Zm.6,3.871a.539.539,0,0,1-.273-.208.285.285,0,0,1-.014-.263.276.276,0,0,1,.279-.186.715.715,0,0,1,.249.053.56.56,0,0,1,.277.2.262.262,0,0,1,.013.251c-.113.285-.435.186-.531.147Zm0,0" transform="translate(-7.119 -7.467)" fill="#fff" stroke="#fff" stroke-width="0.132"/>
          <path id="Path_198" data-name="Path 198" d="M6.487,18.581a3.767,3.767,0,0,1-4.808-.751A4.2,4.2,0,0,1,.442,14.858,3.005,3.005,0,0,1,1.351,12.7a2.944,2.944,0,0,1,1.495-.747A3.576,3.576,0,0,0,4.838,10.87a.221.221,0,1,0-.324-.3,3.139,3.139,0,0,1-1.749.954,3.384,3.384,0,0,0-1.719.861A3.444,3.444,0,0,0,0,14.849a4.641,4.641,0,0,0,1.362,3.289,4.681,4.681,0,0,0,3.3,1.453,3.519,3.519,0,0,0,2.085-.653.221.221,0,1,0-.26-.357Zm0,0" transform="translate(0.001 -4.509)" fill="#fff" stroke="#fff" stroke-width="0.132"/>
          <path id="Path_199" data-name="Path 199" d="M13.53,9.628a2.161,2.161,0,0,0,.638-1.721,3.525,3.525,0,0,0-.58-1.629L15,4.871a.221.221,0,0,0-.312-.312L10.777,8.465a1.7,1.7,0,0,0-.935-.937l4.6-4.6.937.937-.026.026a.221.221,0,1,0,.312.312l.056-.056a.363.363,0,0,0,.109.017h.012a.366.366,0,0,0,.263-.124l.234-.266.251.251a.221.221,0,0,0,.313-.312l-.271-.271L17,3.021l.262.262a.221.221,0,0,0,.313-.313l-.282-.282.366-.416.19.191a.221.221,0,0,0,.313-.313l-.21-.21.265-.3a.367.367,0,0,0-.016-.5L17.167.107a.366.366,0,0,0-.5-.016l-.3.265-.208-.21a.221.221,0,1,0-.312.313l.191.19-.416.366L15.333.73a.221.221,0,0,0-.312.312l.265.265-.418.37L14.6,1.407a.221.221,0,1,0-.312.312l.251.251-.266.234a.364.364,0,0,0-.108.38l-2.131,2.13c-1.242-.8-2.493-.8-3.295,0a2.92,2.92,0,0,0-.484.615.221.221,0,1,0,.384.219,2.494,2.494,0,0,1,.412-.522,2.145,2.145,0,0,1,2.664.009L9.335,7.41c-.042,0-.084-.005-.127-.005A1.693,1.693,0,1,0,10.9,9.1a1.067,1.067,0,0,0-.005-.127L13.265,6.6a2.172,2.172,0,0,1-.05,2.714,2.155,2.155,0,0,1-.491.368,3.619,3.619,0,0,0-1.871,2.546,2.952,2.952,0,0,1-.523,1.226.221.221,0,0,0,.356.262,3.39,3.39,0,0,0,.6-1.407,3.183,3.183,0,0,1,1.648-2.239A2.6,2.6,0,0,0,13.53,9.628ZM16.905.47l.932.932L15.827,3.687,14.62,2.48ZM10.093,9.984A1.252,1.252,0,1,1,10.46,9.1a1.252,1.252,0,0,1-.366.885Zm0,0" transform="translate(-3.226 0.002)" fill="#fff" stroke="#fff" stroke-width="0.132"/>
          <path id="Path_200" data-name="Path 200" d="M3.126,17.122a.766.766,0,0,0,0,1.081l2.255,2.255A.765.765,0,0,0,6.464,19.38L4.208,17.122a.765.765,0,0,0-1.081,0ZM6.151,19.69a.323.323,0,1,1-.456.456L3.439,17.891a.323.323,0,0,1,.456-.456Zm0,0" transform="translate(-1.246 -7.259)" fill="#fff" stroke="#fff" stroke-width="0.132"/>
          <path id="Path_201" data-name="Path 201" d="M18.949,7.491a.221.221,0,0,0,.156-.377l-.471-.471a.221.221,0,0,0-.313.313l.472.471A.22.22,0,0,0,18.949,7.491Zm0,0" transform="translate(-7.844 -2.825)" fill="#fff" stroke="#fff" stroke-width="0.132"/>
          <path id="Path_202" data-name="Path 202" d="M17.8,8.636a.221.221,0,0,0,.156-.377l-.471-.471a.221.221,0,0,0-.312.313l.471.472A.22.22,0,0,0,17.8,8.636Zm0,0" transform="translate(-7.351 -3.316)" fill="#fff" stroke="#fff" stroke-width="0.132"/>
          <path id="Path_203" data-name="Path 203" d="M16.658,9.778a.221.221,0,0,0,.156-.377l-.473-.471a.221.221,0,1,0-.312.312l.472.472A.22.22,0,0,0,16.658,9.778Zm0,0" transform="translate(-6.858 -3.807)" fill="#fff" stroke="#fff" stroke-width="0.132"/>
          <path id="Path_204" data-name="Path 204" d="M15.515,10.923a.221.221,0,0,0,.156-.377l-.471-.471a.221.221,0,1,0-.312.312l.472.471a.22.22,0,0,0,.155.065Zm0,0" transform="translate(-6.368 -4.299)" fill="#fff" stroke="#fff" stroke-width="0.132"/>
          <path id="Path_205" data-name="Path 205" d="M13.742,11.217a.221.221,0,0,0,0,.313l.471.471a.221.221,0,1,0,.312-.313l-.472-.471a.221.221,0,0,0-.312,0Zm0,0" transform="translate(-5.876 -4.791)" fill="#fff" stroke="#fff" stroke-width="0.132"/>
          <path id="Path_206" data-name="Path 206" d="M21.284,3.9a.221.221,0,1,0,0,.312A.221.221,0,0,0,21.284,3.9Zm0,0" transform="translate(-8.982 -1.648)" fill="#fff" stroke="#fff" stroke-width="0.132"/>
          <path id="Path_207" data-name="Path 207" d="M22.212,4.825a.221.221,0,1,0,0,.312.221.221,0,0,0,0-.312Zm0,0" transform="translate(-9.381 -2.043)" fill="#fff" stroke="#fff" stroke-width="0.132"/>
          <path id="Path_208" data-name="Path 208" d="M22.446,2.74a.221.221,0,1,0,0,.312A.221.221,0,0,0,22.446,2.74Zm0,0" transform="translate(-9.481 -1.148)" fill="#fff" stroke="#fff" stroke-width="0.132"/>
          <path id="Path_209" data-name="Path 209" d="M23.375,3.662a.221.221,0,1,0,0,.312.221.221,0,0,0,0-.312Zm0,0" transform="translate(-9.881 -1.544)" fill="#fff" stroke="#fff" stroke-width="0.132"/>
          <path id="Path_210" data-name="Path 210" d="M23.608,1.577a.221.221,0,1,0,0,.312A.221.221,0,0,0,23.608,1.577Zm0,0" transform="translate(-9.981 -0.648)" fill="#fff" stroke="#fff" stroke-width="0.132"/>
          <path id="Path_211" data-name="Path 211" d="M24.538,2.5a.221.221,0,1,0,0,.312A.221.221,0,0,0,24.538,2.5Zm0,0" transform="translate(-10.381 -1.044)" fill="#fff" stroke="#fff" stroke-width="0.132"/>
        </g>
      </g>
    </g>
  </g>
</svg>
