<svg xmlns="http://www.w3.org/2000/svg" xmlns:xlink="http://www.w3.org/1999/xlink" width="45.851" height="52" viewBox="0 0 45.851 52"><defs><filter id="a" x="0" y="0" width="45.851" height="52" filterUnits="userSpaceOnUse"><feOffset dy="3" input="SourceAlpha"/><feGaussianBlur stdDeviation="3" result="b"/><feFlood flood-opacity="0.78"/><feComposite operator="in" in2="b"/><feComposite in="SourceGraphic"/></filter><clipPath id="c"><rect width="14.88" height="14.88" transform="translate(385.392 281.728)" fill="#fff"/></clipPath></defs><g transform="translate(-548.376 -473.199)"><g transform="matrix(1, 0, 0, 1, 548.38, 473.2)" filter="url(#a)"><path d="M13.926,0A13.926,13.926,0,0,1,27.851,13.926C27.851,21.616,13.926,34,13.926,34S0,21.616,0,13.926A13.926,13.926,0,0,1,13.926,0Z" transform="translate(9 6)" fill="#818181"/></g><g transform="translate(178.484 203.471)" clip-path="url(#c)"><g transform="translate(385.392 283.507)"><path d="M14.384,5.461l-5.93-2.9a2.43,2.43,0,0,0-1.892,0L.5,5.461a.731.731,0,0,0-.5.648c0,.153.068.426.5.648L.992,7V9.724a.835.835,0,0,0-.532.766.846.846,0,0,0,.511.767L.2,13.694H2.352l-.765-2.437a.826.826,0,0,0-.019-1.535V7.285l.9.443v3.545a.275.275,0,0,0,.05.153,6.19,6.19,0,0,0,4.91,2.267,6.155,6.155,0,0,0,4.892-2.267.275.275,0,0,0,.05-.153V7.746l2.011-.989a.731.731,0,0,0,.5-.648.762.762,0,0,0-.5-.648Zm-2.555,5.727a5.7,5.7,0,0,1-4.4,1.977,5.7,5.7,0,0,1-4.4-1.977V7.967L6.562,9.653a2.3,2.3,0,0,0,.937.187,2.075,2.075,0,0,0,.954-.2l3.373-1.653Zm2.318-4.91L12.1,7.285a.2.2,0,0,0-.187.1l-3.7,1.789a1.892,1.892,0,0,1-1.432,0L2.232,6.994,7.465,6.38a.265.265,0,0,0-.05-.528L1.347,6.57l-.614-.29a.344.344,0,0,1-.187-.153c0-.017.034-.085.187-.153L6.8,3.058a1.761,1.761,0,0,1,.7-.136,1.728,1.728,0,0,1,.716.136l5.932,2.9c.153.068.187.136.187.171a.469.469,0,0,1-.187.153Z" transform="translate(0 -2.372)" fill="#fff"/></g></g></g></svg>