<svg xmlns="http://www.w3.org/2000/svg" xmlns:xlink="http://www.w3.org/1999/xlink" width="45.851" height="52" viewBox="0 0 45.851 52"><defs><filter id="a" x="0" y="0" width="45.851" height="52" filterUnits="userSpaceOnUse"><feOffset dy="3" input="SourceAlpha"/><feGaussianBlur stdDeviation="3" result="b"/><feFlood flood-opacity="0.78"/><feComposite operator="in" in2="b"/><feComposite in="SourceGraphic"/></filter><clipPath id="c"><rect width="14.88" height="14.88" transform="translate(137.888 280.736)" fill="#98c26c"/></clipPath></defs><g transform="translate(-288.876 -472.199)"><g transform="matrix(1, 0, 0, 1, 288.88, 472.2)" filter="url(#a)"><g transform="translate(9 6)" fill="#fff"><path d="M 13.92556762695312 32.98430633544922 C 12.84431266784668 31.9829158782959 10.16761779785156 29.43161773681641 7.521228313446045 26.34593963623047 C 3.091448545455933 21.18084907531738 0.7499985098838806 16.88594055175781 0.7499985098838806 13.92551040649414 C 0.7499985098838806 10.40620040893555 2.120488405227661 7.097539901733398 4.609018325805664 4.609020233154297 C 7.097548484802246 2.120490074157715 10.40620803833008 0.75 13.92550849914551 0.75 C 17.4448184967041 0.75 20.75347900390625 2.120490074157715 23.24199867248535 4.609020233154297 C 25.73052787780762 7.097539901733398 27.10101890563965 10.40620040893555 27.10101890563965 13.92551040649414 C 27.10101890563965 16.88847923278809 24.755859375 21.18770980834961 20.31907844543457 26.35843086242676 C 17.67391395568848 29.44115447998047 15.00488471984863 31.98488426208496 13.92556762695312 32.98430633544922 Z" stroke="none"/><path d="M 13.92550849914551 1.5 C 10.60652923583984 1.5 7.486207962036133 2.79248046875 5.139348983764648 5.139350891113281 C 2.792478561401367 7.486209869384766 1.499998092651367 10.60652923583984 1.499998092651367 13.92551040649414 C 1.499998092651367 15.40813064575195 2.160947799682617 17.29672050476074 3.464479446411133 19.53881072998047 C 4.570247650146484 21.44073867797852 6.123098373413086 23.56254005432129 8.079877853393555 25.84526062011719 C 10.35574913024902 28.50022888183594 12.65697383880615 30.75815010070801 13.92569637298584 31.95722770690918 C 15.18932342529297 30.76323318481445 17.47746467590332 28.51837158203125 19.74989891052246 25.87004089355469 C 21.71207809448242 23.58325958251953 23.26947784423828 21.45758056640625 24.37883758544922 19.55204010009766 C 25.68747901916504 17.30418014526367 26.35101890563965 15.41114044189453 26.35101890563965 13.92551040649414 C 26.35101890563965 10.60652923583984 25.05853843688965 7.486209869384766 22.71166801452637 5.139350891113281 C 20.36480903625488 2.79248046875 17.24448776245117 1.5 13.92550849914551 1.5 M 13.92550849914551 0 C 21.61635780334473 0 27.85101890563965 6.234659194946289 27.85101890563965 13.92551040649414 C 27.85101890563965 21.61635971069336 13.92550849914551 34 13.92550849914551 34 C 13.92550849914551 34 -1.9073486328125e-06 21.61635971069336 -1.9073486328125e-06 13.92551040649414 C -1.9073486328125e-06 6.234659194946289 6.234659194946289 0 13.92550849914551 0 Z" stroke="none" fill="#98c26c"/></g></g><g transform="translate(166.488 203.463)" clip-path="url(#c)"><g transform="translate(137.888 280.736)"><path d="M13.438,3.039A7.44,7.44,0,0,0,1.015,11.192v0a7.568,7.568,0,0,0,.426.648,7.44,7.44,0,0,0,4.3,2.838c.078.018.157.035.236.05a.294.294,0,0,0,.05.009,7.427,7.427,0,0,0,2.84,0,.291.291,0,0,0,.041-.008,7.386,7.386,0,0,0,1.881-.646.291.291,0,0,0-.262-.519,6.922,6.922,0,0,1-1.1.442l1.2-2.089,2.359-.443a6.709,6.709,0,0,1-.686.805.291.291,0,0,0,.411.411,7.386,7.386,0,0,0,1.141-1.479l.007-.011a7.458,7.458,0,0,0,.969-2.882q0-.011,0-.021.016-.133.027-.266a7.437,7.437,0,0,0-1.414-4.995ZM8.482.663a6.806,6.806,0,0,1,3.9,2.02l-.355,3.048-2.278.511L7.738,4.782V2.6l.446-.321a.291.291,0,0,0-.339-.472l-.419.3-2-1.225A6.832,6.832,0,0,1,8.482.663Zm-2.941,6,.946-.687.946-.687L9.325,6.665,8.6,8.89H6.263ZM3.383,1.912a6.912,6.912,0,0,1,1.349-.771L7.142,2.614V4.782L5.134,6.242,2.848,5.728,2.381,2.809a6.929,6.929,0,0,1,1-.9ZM.662,6.4A6.826,6.826,0,0,1,1.888,3.411l.393,2.458L.582,7.582A6.952,6.952,0,0,1,.662,6.4ZM.64,8.348,2.684,6.286,4.973,6.8l.759,2.338L4.3,11.339l-2.848-.546A6.789,6.789,0,0,1,.64,8.35ZM1.912,11.5l-.022-.031,2.366.454,1.209,2.1A6.853,6.853,0,0,1,1.912,11.5ZM8.64,14.2a6.813,6.813,0,0,1-2.4,0L4.781,11.67l1.428-2.2H8.671l1.428,2.2Zm4.773-3.393-2.836.533-1.43-2.2L9.907,6.8l2.288-.513,2.028,2.083a6.894,6.894,0,0,1-.809,2.435ZM14.285,7.6,12.6,5.864l.3-2.58.075.1A6.839,6.839,0,0,1,14.285,7.6Z" fill="#98c26c"/><g transform="translate(8.538 1.17)"><path d="M11.88,1.645a.29.29,0,1,0,.085.205A.29.29,0,0,0,11.88,1.645Z" transform="translate(-11.384 -1.56)" fill="#98c26c"/></g><g transform="translate(11.345 12.924)"><path d="M15.624,17.318a.29.29,0,1,0,.085.205A.29.29,0,0,0,15.624,17.318Z" transform="translate(-15.127 -17.233)" fill="#98c26c"/></g></g></g></g></svg>