<svg xmlns="http://www.w3.org/2000/svg" xmlns:xlink="http://www.w3.org/1999/xlink" width="45.851" height="52" viewBox="0 0 45.851 52"><defs><filter id="a" x="0" y="0" width="45.851" height="52" filterUnits="userSpaceOnUse"><feOffset dy="3" input="SourceAlpha"/><feGaussianBlur stdDeviation="3" result="b"/><feFlood flood-opacity="0.78"/><feComposite operator="in" in2="b"/><feComposite in="SourceGraphic"/></filter><clipPath id="c"><rect width="14.88" height="14.88" transform="translate(270.876 484.199)" fill="#fff"/></clipPath><clipPath id="d"><rect width="14.88" height="14.88" transform="translate(164.176 280.736)" fill="#fff"/></clipPath></defs><g transform="translate(-255.876 -472.199)"><g transform="matrix(1, 0, 0, 1, 255.88, 472.2)" filter="url(#a)"><path d="M13.926,0A13.926,13.926,0,0,1,27.851,13.926C27.851,21.616,13.926,34,13.926,34S0,21.616,0,13.926A13.926,13.926,0,0,1,13.926,0Z" transform="translate(9 6)" fill="#dc9764"/></g><g transform="translate(0.5)" clip-path="url(#c)"><g transform="translate(106.7 203.463)" clip-path="url(#d)"><g transform="translate(164.233 280.736)"><g transform="translate(9.474 6.568)"><circle cx="0.291" cy="0.291" r="0.291" transform="translate(0 0)" fill="#fff"/></g><g transform="translate(5.416 8.101)"><path d="M11.695,10.8a.291.291,0,0,0-.33.245,1.584,1.584,0,0,1-1.213,1.19A2.324,2.324,0,0,1,7.8,11.718a.291.291,0,1,0-.428.393,2.561,2.561,0,0,0,1.4.765,3.1,3.1,0,0,0,.609.06,3.228,3.228,0,0,0,.942-.14,2.145,2.145,0,0,0,1.617-1.661.291.291,0,0,0-.246-.331Z" transform="translate(-7.296 -10.801)" fill="#fff"/></g><path d="M13.929,5.534A3.6,3.6,0,0,0,11.8,4.365a16.488,16.488,0,0,0,2.083-1.624c.784-.75,1.051-1.278.828-1.66-.246-.425-.954-.423-2.232.009A22.32,22.32,0,0,0,8.693,2.876c-.235.136-.468.275-.694.415A1.561,1.561,0,0,1,8.314,1.8,1.111,1.111,0,0,0,8.477.622,1.174,1.174,0,0,0,7.377,0H7.363A7.214,7.214,0,0,0,2.48,1.97,7.324,7.324,0,0,0,.1,6.71a7.465,7.465,0,0,0,7.41,8.17,7.929,7.929,0,0,0,3.112-.607,7,7,0,0,0,2.292-1.562,6.9,6.9,0,0,0,1.418-2.121,6.15,6.15,0,0,0,.5-2.3,4.053,4.053,0,0,0-.913-2.76ZM8.035,3.952c.308-.194.628-.387.952-.574a22.406,22.406,0,0,1,3.528-1.686c1.119-.4,1.577-.371,1.686-.319-.009.067-.093.369-.828,1.045a18.492,18.492,0,0,1-2.522,1.87c-.32.2-.653.4-.992.6-.465.268-.929.519-1.384.748A4.354,4.354,0,0,0,7.651,4.2Q7.837,4.076,8.035,3.952ZM7.948,5.894a14.9,14.9,0,0,1-2.175.858,1.45,1.45,0,0,0-.438-.773,14.946,14.946,0,0,1,1.83-1.453,3.789,3.789,0,0,1,.784,1.368ZM14.26,8.283A6.47,6.47,0,0,1,7.515,14.3,6.859,6.859,0,1,1,7.363.579h.013a.6.6,0,0,1,.578.293.53.53,0,0,1-.1.56A2.133,2.133,0,0,0,7.5,3.6c-.156.1-.309.2-.457.3h0A15.48,15.48,0,0,0,4.819,5.669a1.445,1.445,0,0,0-1.194.117,7.138,7.138,0,0,0-1.55,2.3.291.291,0,0,0,.239.414c.161.013.617.046,1.124.046A3.961,3.961,0,0,0,5.075,8.3a1.45,1.45,0,0,0,.694-.95A15.376,15.376,0,0,0,8.422,6.308c.565-.275,1.146-.584,1.728-.92.295-.17.586-.347.869-.523h0A3.127,3.127,0,0,1,14.26,8.283ZM5.219,7.1a.871.871,0,0,1-.434.7,5.65,5.65,0,0,1-1.994.145A5.65,5.65,0,0,1,3.913,6.293.872.872,0,0,1,5.219,7.1Z" transform="translate(-0.075)" fill="#fff"/><g transform="translate(3.952 1.797)"><path d="M6.507,2.4A1.163,1.163,0,1,0,7.67,3.559,1.163,1.163,0,0,0,6.507,2.4Zm0,1.744a.581.581,0,1,1,.581-.581.581.581,0,0,1-.581.581Z" transform="translate(-5.344 -2.396)" fill="#fff"/></g><g transform="translate(2.499 9.607)"><path d="M4.57,12.809a1.163,1.163,0,1,0,1.163,1.163A1.163,1.163,0,0,0,4.57,12.809Zm0,1.744a.581.581,0,1,1,.581-.581A.581.581,0,0,1,4.57,14.553Z" transform="translate(-3.407 -12.809)" fill="#fff"/></g><g transform="translate(5.405 11.35)"><path d="M8.444,15.134A1.163,1.163,0,1,0,9.607,16.3,1.163,1.163,0,0,0,8.444,15.134Zm0,1.744a.581.581,0,1,1,.583-.582.581.581,0,0,1-.583.582Z" transform="translate(-7.282 -15.134)" fill="#fff"/></g><g transform="translate(8.893 10.769)"><path d="M13.094,14.359a1.163,1.163,0,1,0,1.163,1.163,1.163,1.163,0,0,0-1.163-1.163Zm0,1.744a.581.581,0,1,1,.581-.581A.581.581,0,0,1,13.094,16.1Z" transform="translate(-11.932 -14.359)" fill="#fff"/></g><g transform="translate(11.218 7.863)"><path d="M16.194,10.484a1.163,1.163,0,1,0,1.163,1.163,1.163,1.163,0,0,0-1.163-1.163Zm0,1.744a.581.581,0,1,1,.581-.581.581.581,0,0,1-.581.581Z" transform="translate(-15.032 -10.484)" fill="#fff"/></g></g></g></g></g></svg>