<svg xmlns="http://www.w3.org/2000/svg" xmlns:xlink="http://www.w3.org/1999/xlink" width="45.851" height="52" viewBox="0 0 45.851 52"><defs><filter id="a" x="0" y="0" width="45.851" height="52" filterUnits="userSpaceOnUse"><feOffset dy="3" input="SourceAlpha"/><feGaussianBlur stdDeviation="3" result="b"/><feFlood flood-opacity="0.78"/><feComposite operator="in" in2="b"/><feComposite in="SourceGraphic"/></filter><clipPath id="c"><rect width="14.88" height="14.88" fill="#fff"/></clipPath></defs><g transform="translate(-516.376 -472.199)"><g transform="matrix(1, 0, 0, 1, 516.38, 472.2)" filter="url(#a)"><path d="M13.926,0A13.926,13.926,0,0,1,27.851,13.926C27.851,21.616,13.926,34,13.926,34S0,21.616,0,13.926A13.926,13.926,0,0,1,13.926,0Z" transform="translate(9 6)" fill="#f07327"/></g><g transform="translate(531.876 484.199)" clip-path="url(#c)"><g transform="translate(0.785 -0.002)"><path d="M13.311,2.146A.911.911,0,0,0,12.053,1.3.911.911,0,0,0,10.8.66a.911.911,0,0,0-1.753,0A.911.911,0,0,0,7.77,1.5V3.78a.925.925,0,0,0-1.438.11c-.015.022-.029.045-.042.068a.872.872,0,0,0-.729-.045.874.874,0,0,0-1.18-.6.875.875,0,0,0-1.672,0,.874.874,0,0,0-1.2.811V6.226a.887.887,0,0,0-1.488.809L.323,8.586a3.141,3.141,0,0,0,.868,1.622l.546.546v.93H1.428a.291.291,0,0,0-.291.291v2.616a.291.291,0,0,0,.581,0V12.264H5.513v2.325a.291.291,0,1,0,.581,0V11.973a.291.291,0,0,0-.291-.291h-.3v-.93l.323-.322A3.132,3.132,0,0,0,6.755,8.2V6.982a3.323,3.323,0,0,0,.678.975l.586.584V9.678H7.672a.291.291,0,0,0-.291.291v4.621a.291.291,0,1,0,.581,0V11.421H9.369a.291.291,0,0,0,0-.581H7.961v-.581h4.067v4.33a.291.291,0,1,0,.581,0V9.97a.291.291,0,0,0-.291-.291h-.337V8.541l.347-.347a3.311,3.311,0,0,0,.98-2.36v-.3a.291.291,0,1,0-.581,0v.3a2.733,2.733,0,0,1-.808,1.948l-.434.433a.291.291,0,0,0-.085.206V9.678H8.6V8.42a.29.29,0,0,0-.085-.206l-.671-.669a2.742,2.742,0,0,1-.756-1.416L6.759,4.48a.344.344,0,1,1,.671-.149l.168.685a.382.382,0,0,0,.753-.091V1.5a.33.33,0,0,1,.658-.037V3.373a.283.283,0,0,0,0,.034v.186a.291.291,0,0,0,.581,0V.911a.33.33,0,0,1,.66,0V3.373a.308.308,0,0,0,0,.034v.186a.291.291,0,1,0,.581,0V1.461a.33.33,0,0,1,.658.037V3.373a.309.309,0,0,0,0,.034v.186a.291.291,0,0,0,.581,0V2.109a.33.33,0,0,1,.658.037v1.06a.291.291,0,1,0,.581,0V2.146ZM6.169,8.2a2.554,2.554,0,0,1-.753,1.822l-.408.407a.29.29,0,0,0-.085.206v1.051h-2.6V10.632a.29.29,0,0,0-.085-.206L1.6,9.8A2.562,2.562,0,0,1,.893,8.474L.587,6.923a.307.307,0,0,1,.6-.132l.158.645a.377.377,0,0,0,.744-.09V4.121a.293.293,0,0,1,.585-.033V5.883a.291.291,0,0,0,0,.033V6.09a.291.291,0,1,0,.581,0V3.567a.294.294,0,0,1,.587,0V5.883a.3.3,0,0,0,0,.034v.175a.291.291,0,0,0,.581,0v-2a.293.293,0,0,1,.585.034V5.883a.3.3,0,0,0,0,.034v.175a.291.291,0,1,0,.581,0V4.7a.293.293,0,0,1,.585.034Zm0,0" transform="translate(0 0.002)" fill="#fff"/><path d="M17.4,5.482a.291.291,0,1,0,.205.085.291.291,0,0,0-.205-.085Zm0,0" transform="translate(-4.38 -1.401)" fill="#fff"/><path d="M14.053,14.571a.291.291,0,1,0,.206.085A.294.294,0,0,0,14.053,14.571Zm0,0" transform="translate(-3.523 -3.728)" fill="#fff"/></g></g></g></svg>