<svg xmlns="http://www.w3.org/2000/svg" xmlns:xlink="http://www.w3.org/1999/xlink" width="45.851" height="52" viewBox="0 0 45.851 52"><defs><filter id="a" x="0" y="0" width="45.851" height="52" filterUnits="userSpaceOnUse"><feOffset dy="3" input="SourceAlpha"/><feGaussianBlur stdDeviation="3" result="b"/><feFlood flood-opacity="0.78"/><feComposite operator="in" in2="b"/><feComposite in="SourceGraphic"/></filter><clipPath id="c"><rect width="14.88" height="14.88" transform="translate(274 282.5)" fill="#ef3d2d" stroke="#ef3d2d" stroke-width="0.1"/></clipPath></defs><g transform="translate(-387.876 -475.199)"><g transform="matrix(1, 0, 0, 1, 387.88, 475.2)" filter="url(#a)"><g transform="translate(9 6)" fill="#fff"><path d="M 13.92556762695312 32.98430633544922 C 12.84431266784668 31.9829158782959 10.16761779785156 29.43161773681641 7.521228313446045 26.34593963623047 C 3.091448545455933 21.18084907531738 0.7499985098838806 16.88594055175781 0.7499985098838806 13.92551040649414 C 0.7499985098838806 10.40620040893555 2.120488405227661 7.097539901733398 4.609018325805664 4.609020233154297 C 7.097548484802246 2.120490074157715 10.40620803833008 0.75 13.92550849914551 0.75 C 17.4448184967041 0.75 20.75347900390625 2.120490074157715 23.24199867248535 4.609020233154297 C 25.73052787780762 7.097539901733398 27.10101890563965 10.40620040893555 27.10101890563965 13.92551040649414 C 27.10101890563965 16.88847923278809 24.755859375 21.18770980834961 20.31907844543457 26.35843086242676 C 17.67391395568848 29.44115447998047 15.00488471984863 31.98488426208496 13.92556762695312 32.98430633544922 Z" stroke="none"/><path d="M 13.92550849914551 1.5 C 10.60652923583984 1.5 7.486207962036133 2.79248046875 5.139348983764648 5.139350891113281 C 2.792478561401367 7.486209869384766 1.499998092651367 10.60652923583984 1.499998092651367 13.92551040649414 C 1.499998092651367 15.40813064575195 2.160947799682617 17.29672050476074 3.464479446411133 19.53881072998047 C 4.570247650146484 21.44073867797852 6.123098373413086 23.56254005432129 8.079877853393555 25.84526062011719 C 10.35574913024902 28.50022888183594 12.65697383880615 30.75815010070801 13.92569637298584 31.95722770690918 C 15.18932342529297 30.76323318481445 17.47746467590332 28.51837158203125 19.74989891052246 25.87004089355469 C 21.71207809448242 23.58325958251953 23.26947784423828 21.45758056640625 24.37883758544922 19.55204010009766 C 25.68747901916504 17.30418014526367 26.35101890563965 15.41114044189453 26.35101890563965 13.92551040649414 C 26.35101890563965 10.60652923583984 25.05853843688965 7.486209869384766 22.71166801452637 5.139350891113281 C 20.36480903625488 2.79248046875 17.24448776245117 1.5 13.92550849914551 1.5 M 13.92550849914551 0 C 21.61635780334473 0 27.85101890563965 6.234659194946289 27.85101890563965 13.92551040649414 C 27.85101890563965 21.61635971069336 13.92550849914551 34 13.92550849914551 34 C 13.92550849914551 34 -1.9073486328125e-06 21.61635971069336 -1.9073486328125e-06 13.92551040649414 C -1.9073486328125e-06 6.234659194946289 6.234659194946289 0 13.92550849914551 0 Z" stroke="none" fill="#ef3d2d"/></g></g><g transform="translate(129.376 204.699)" clip-path="url(#c)"><g transform="translate(274 283.376)"><g transform="translate(12.046 1.502)"><path d="M16.482,3.2a.291.291,0,1,0,.291.291.291.291,0,0,0-.291-.291Z" transform="translate(-16.192 -3.196)" fill="#ef3d2d" stroke="#ef3d2d" stroke-width="0.1"/></g><path d="M13.847,2.387a3.578,3.578,0,0,0-2.709-1.209A4.2,4.2,0,0,0,8.1,2.468a5.15,5.15,0,0,0-.659.821,5.154,5.154,0,0,0-.659-.82A4.2,4.2,0,0,0,3.742,1.18,3.831,3.831,0,0,0,0,5.217c0,2.962,3.139,5.456,7.25,9.019a.291.291,0,0,0,.38,0c4.121-3.573,7.25-6.063,7.25-9.019a4.233,4.233,0,0,0-1.033-2.83ZM7.44,13.63C3.558,10.271.581,7.858.581,5.217A3.245,3.245,0,0,1,3.742,1.762a3.586,3.586,0,0,1,2.612,1.1A4.333,4.333,0,0,1,7.175,4a.291.291,0,0,0,.265.172h0A.291.291,0,0,0,7.7,4a4.334,4.334,0,0,1,.821-1.134,3.586,3.586,0,0,1,2.612-1.1A3.246,3.246,0,0,1,14.3,5.215C14.3,7.918,11.125,10.441,7.44,13.63Z" transform="translate(0 -1.178)" fill="#ef3d2d" stroke="#ef3d2d" stroke-width="0.1"/><g transform="translate(11.814 2.381)"><path d="M17.419,4.535a.291.291,0,1,0-.515.27,2.694,2.694,0,0,1,.3,1.23,4.631,4.631,0,0,1-1.258,2.8A.291.291,0,1,0,16.4,9.2a5.157,5.157,0,0,0,1.387-3.166,3.24,3.24,0,0,0-.366-1.5Z" transform="translate(-15.88 -4.379)" fill="#ef3d2d" stroke="#ef3d2d" stroke-width="0.1"/></g><g transform="translate(4.357 3.653)"><path d="M11.73,8.006H10.1V6.378a.291.291,0,0,0-.291-.291H8.068a.291.291,0,0,0-.291.291V8.006H6.148a.291.291,0,0,0-.291.291V10.04a.291.291,0,0,0,.291.291H7.775v1.627a.291.291,0,0,0,.291.291H9.81a.291.291,0,0,0,.291-.291V10.33h1.627a.291.291,0,0,0,.291-.291V8.3a.291.291,0,0,0-.288-.291Zm-.291,1.744H9.812a.291.291,0,0,0-.291.291v1.627H8.359V10.04a.291.291,0,0,0-.291-.291H6.441V8.587H8.068A.291.291,0,0,0,8.359,8.3V6.669H9.52V8.3a.291.291,0,0,0,.291.291h1.627Z" transform="translate(-5.857 -6.087)" fill="#ef3d2d" stroke="#ef3d2d" stroke-width="0.1"/></g></g></g></g></svg>