<svg xmlns="http://www.w3.org/2000/svg" xmlns:xlink="http://www.w3.org/1999/xlink" width="45.851" height="52" viewBox="0 0 45.851 52"><defs><filter id="a" x="0" y="0" width="45.851" height="52" filterUnits="userSpaceOnUse"><feOffset dy="3" input="SourceAlpha"/><feGaussianBlur stdDeviation="3" result="b"/><feFlood flood-opacity="0.78"/><feComposite operator="in" in2="b"/><feComposite in="SourceGraphic"/></filter><clipPath id="c"><rect width="14.88" height="14.88" transform="translate(385.392 281.728)" fill="#818181" stroke="#818181" stroke-width="0.05"/></clipPath></defs><g transform="translate(-548.376 -473.199)"><g transform="matrix(1, 0, 0, 1, 548.38, 473.2)" filter="url(#a)"><g transform="translate(9 6)" fill="#fff"><path d="M 13.92556762695312 32.98430633544922 C 12.84431266784668 31.9829158782959 10.16761779785156 29.43161773681641 7.521228313446045 26.34593963623047 C 3.091448545455933 21.18084907531738 0.7499985098838806 16.88594055175781 0.7499985098838806 13.92551040649414 C 0.7499985098838806 10.40620040893555 2.120488405227661 7.097539901733398 4.609018325805664 4.609020233154297 C 7.097548484802246 2.120490074157715 10.40620803833008 0.75 13.92550849914551 0.75 C 17.4448184967041 0.75 20.75347900390625 2.120490074157715 23.24199867248535 4.609020233154297 C 25.73052787780762 7.097539901733398 27.10101890563965 10.40620040893555 27.10101890563965 13.92551040649414 C 27.10101890563965 16.88847923278809 24.755859375 21.18770980834961 20.31907844543457 26.35843086242676 C 17.67391395568848 29.44115447998047 15.00488471984863 31.98488426208496 13.92556762695312 32.98430633544922 Z" stroke="none"/><path d="M 13.92550849914551 1.5 C 10.60652923583984 1.5 7.486207962036133 2.79248046875 5.139348983764648 5.139350891113281 C 2.792478561401367 7.486209869384766 1.499998092651367 10.60652923583984 1.499998092651367 13.92551040649414 C 1.499998092651367 15.40813064575195 2.160947799682617 17.29672050476074 3.464479446411133 19.53881072998047 C 4.570247650146484 21.44073867797852 6.123098373413086 23.56254005432129 8.079877853393555 25.84526062011719 C 10.35574913024902 28.50022888183594 12.65697383880615 30.75815010070801 13.92569637298584 31.95722770690918 C 15.18932342529297 30.76323318481445 17.47746467590332 28.51837158203125 19.74989891052246 25.87004089355469 C 21.71207809448242 23.58325958251953 23.26947784423828 21.45758056640625 24.37883758544922 19.55204010009766 C 25.68747901916504 17.30418014526367 26.35101890563965 15.41114044189453 26.35101890563965 13.92551040649414 C 26.35101890563965 10.60652923583984 25.05853843688965 7.486209869384766 22.71166801452637 5.139350891113281 C 20.36480903625488 2.79248046875 17.24448776245117 1.5 13.92550849914551 1.5 M 13.92550849914551 0 C 21.61635780334473 0 27.85101890563965 6.234659194946289 27.85101890563965 13.92551040649414 C 27.85101890563965 21.61635971069336 13.92550849914551 34 13.92550849914551 34 C 13.92550849914551 34 -1.9073486328125e-06 21.61635971069336 -1.9073486328125e-06 13.92551040649414 C -1.9073486328125e-06 6.234659194946289 6.234659194946289 0 13.92550849914551 0 Z" stroke="none" fill="#818181"/></g></g><g transform="translate(178.484 203.471)" clip-path="url(#c)"><g transform="translate(385.392 283.507)"><path d="M14.384,5.461l-5.93-2.9a2.43,2.43,0,0,0-1.892,0L.5,5.461a.731.731,0,0,0-.5.648c0,.153.068.426.5.648L.992,7V9.724a.835.835,0,0,0-.532.766.846.846,0,0,0,.511.767L.2,13.694H2.352l-.765-2.437a.826.826,0,0,0-.019-1.535V7.285l.9.443v3.545a.275.275,0,0,0,.05.153,6.19,6.19,0,0,0,4.91,2.267,6.155,6.155,0,0,0,4.892-2.267.275.275,0,0,0,.05-.153V7.746l2.011-.989a.731.731,0,0,0,.5-.648.762.762,0,0,0-.5-.648Zm-2.555,5.727a5.7,5.7,0,0,1-4.4,1.977,5.7,5.7,0,0,1-4.4-1.977V7.967L6.562,9.653a2.3,2.3,0,0,0,.937.187,2.075,2.075,0,0,0,.954-.2l3.373-1.653Zm2.318-4.91L12.1,7.285a.2.2,0,0,0-.187.1l-3.7,1.789a1.892,1.892,0,0,1-1.432,0L2.232,6.994,7.465,6.38a.265.265,0,0,0-.05-.528L1.347,6.57l-.614-.29a.344.344,0,0,1-.187-.153c0-.017.034-.085.187-.153L6.8,3.058a1.761,1.761,0,0,1,.7-.136,1.728,1.728,0,0,1,.716.136l5.932,2.9c.153.068.187.136.187.171a.469.469,0,0,1-.187.153Z" transform="translate(0 -2.372)" fill="#818181" stroke="#818181" stroke-width="0.05"/></g></g></g></svg>