<svg xmlns="http://www.w3.org/2000/svg" xmlns:xlink="http://www.w3.org/1999/xlink" width="45.851" height="52" viewBox="0 0 45.851 52"><defs><filter id="a" x="0" y="0" width="45.851" height="52" filterUnits="userSpaceOnUse"><feOffset dy="3" input="SourceAlpha"/><feGaussianBlur stdDeviation="3" result="b"/><feFlood flood-opacity="0.78"/><feComposite operator="in" in2="b"/><feComposite in="SourceGraphic"/></filter><clipPath id="c"><rect width="14.88" height="14.88" transform="translate(341 284)" fill="#fff"/></clipPath></defs><g transform="translate(-484.376 -474.199)"><g transform="matrix(1, 0, 0, 1, 484.38, 474.2)" filter="url(#a)"><path d="M13.926,0A13.926,13.926,0,0,1,27.851,13.926C27.851,21.616,13.926,34,13.926,34S0,21.616,0,13.926A13.926,13.926,0,0,1,13.926,0Z" transform="translate(9 6)" fill="#1abc9c"/></g><g transform="translate(158.876 202.199)" clip-path="url(#c)"><path d="M14.508,2.446A2.976,2.976,0,0,0,13.795.992h0A2.764,2.764,0,0,0,12.87.3L12.86.292A2.986,2.986,0,0,0,9.747.623l0,0a3.507,3.507,0,0,0-.789.923h0l0,.008A2.99,2.99,0,0,0,8.6,3.3a.289.289,0,0,0,.153.226,1.071,1.071,0,0,0,.17.071,2.734,2.734,0,0,0,1.386,1.6,2.7,2.7,0,0,0-.74.557.289.289,0,0,0,.421.4,2.136,2.136,0,0,1,.338-.292,1.243,1.243,0,0,0,1.141.859h.041A1.237,1.237,0,0,0,12.642,5.8a2.133,2.133,0,0,1,1,1.791v3l-2.629,1.705a.289.289,0,0,0,.314.485l2.759-1.791a.289.289,0,0,0,.131-.243V7.589a2.678,2.678,0,0,0-1.474-2.4A2.749,2.749,0,0,0,14.263,2.9a1.082,1.082,0,0,0,.209-.258.288.288,0,0,0,.035-.2ZM11.513,6.135H11.47a.7.7,0,0,1-.638-.732s0-.01,0-.015a2.745,2.745,0,0,0,1.3.024.717.717,0,0,1-.616.723ZM11.531,4.9A2.161,2.161,0,0,1,9.547,3.6a1.082,1.082,0,0,0,.776-.873,4.1,4.1,0,0,0,.522.033,3.932,3.932,0,0,0,1.66-.359,1.081,1.081,0,0,0,1.036.778,1.065,1.065,0,0,0,.107-.005A2.169,2.169,0,0,1,11.53,4.9Zm2.01-2.3a.5.5,0,0,1-.5-.5V1.943A.289.289,0,0,0,12.6,1.7a3.288,3.288,0,0,1-1.753.488,3.486,3.486,0,0,1-.738-.078.289.289,0,0,0-.35.282v.175a.5.5,0,0,1-.5.5.507.507,0,0,1-.056,0H9.186l-.019,0V2.986a2.41,2.41,0,0,1,.29-1.151v0a2.962,2.962,0,0,1,.643-.75h0a2.409,2.409,0,0,1,2.51-.267l.025.011a2.182,2.182,0,0,1,.719.546l0,.006a2.4,2.4,0,0,1,.555,1.06.5.5,0,0,1-.373.167ZM9.07,9.995a2.213,2.213,0,0,0,.848-2.926A.293.293,0,0,0,9.9,7.032a2.214,2.214,0,0,0-3.9,0,.292.292,0,0,0-.019.036A2.213,2.213,0,0,0,6.83,9.994a2.439,2.439,0,0,0-1.323,2.17v1.054a.289.289,0,0,0,.134.244l2.152,1.374a.289.289,0,0,0,.31,0l2.16-1.364a.289.289,0,0,0,.134-.248l0-1.061A2.448,2.448,0,0,0,9.069,10ZM7.95,6.448A1.634,1.634,0,0,1,9.2,7.034a4.717,4.717,0,0,1-2.508,0A1.634,1.634,0,0,1,7.95,6.448ZM6.313,8.085a1.63,1.63,0,0,1,.09-.536,5.258,5.258,0,0,0,3.094,0,1.637,1.637,0,1,1-3.184.536Zm2.15,2.155a.526.526,0,0,1-.493.458H7.935a.546.546,0,0,1-.518-.463,2.224,2.224,0,0,0,1.046,0ZM7.95,14.248l-1.866-1.19v-.893a1.862,1.862,0,0,1,.841-1.557,1.133,1.133,0,0,0,1.01.668H7.97a1.091,1.091,0,0,0,.988-.678,1.872,1.872,0,0,1,.858,1.569l0,.9ZM5.875,6.495a.289.289,0,0,0-.093-.4,2.691,2.691,0,0,0-.273-.149,2.728,2.728,0,0,0,.924-.771,1.007,1.007,0,0,0,1.336-.952V3.508A3.508,3.508,0,0,0,4.4,0h0c-.08,0-.152,0-.225,0A3.507,3.507,0,0,0,.755,3.507v.719a1.007,1.007,0,0,0,1.335.951A2.725,2.725,0,0,0,3.123,6,2.678,2.678,0,0,0,1.681,8.382v2.365a.289.289,0,0,0,.131.243l2.621,1.7a.289.289,0,0,0,.314-.485L2.258,10.591V8.382A2.1,2.1,0,0,1,3.091,6.7a1.28,1.28,0,0,0,1.146.909H4.28A1.32,1.32,0,0,0,5.427,6.556l.05.031a.289.289,0,0,0,.4-.092Zm-3.4-4.037a2.071,2.071,0,0,0-.286,1.05v.718a.429.429,0,0,1-.164.337L2,4.581a.429.429,0,0,1-.669-.355V3.508A2.913,2.913,0,0,1,4.191.578h.188A2.921,2.921,0,0,1,7.192,3.5v.721a.429.429,0,0,1-.669.356L6.5,4.564a.429.429,0,0,1-.165-.338V3.508A2.083,2.083,0,0,0,4.566,1.458a.289.289,0,0,0-.33.263,2.926,2.926,0,0,1-.109.6h-1.4a.289.289,0,0,0-.249.141Zm1.8,4.578H4.236a.787.787,0,0,1-.645-.8.289.289,0,0,0-.009-.073,2.778,2.778,0,0,0,1.328.009C4.888,6.591,4.569,7.035,4.28,7.035ZM4.261,5.669a2.149,2.149,0,0,1-1.7-.83,1,1,0,0,0,.209-.613V3.508A1.5,1.5,0,0,1,2.9,2.893H4.338A.289.289,0,0,0,4.608,2.7a3.484,3.484,0,0,0,.159-.6,1.5,1.5,0,0,1,.986,1.405v.718a1,1,0,0,0,.209.613,2.149,2.149,0,0,1-1.7.83Z" transform="translate(340.807 284)" fill="#fff"/></g></g></svg>