<?xml version="1.0" standalone="no"?>
<!DOCTYPE svg PUBLIC "-//W3C//DTD SVG 1.1//EN" "http://www.w3.org/Graphics/SVG/1.1/DTD/svg11.dtd">
<svg xmlns="http://www.w3.org/2000/svg">
<metadata>Copyright (C) 2020 by original authors @ fontello.com</metadata>
<defs>
<font id="fontello" horiz-adv-x="1000" >
<font-face font-family="fontello" font-weight="400" font-stretch="normal" units-per-em="1000" ascent="850" descent="-150" />
<missing-glyph horiz-adv-x="1000" />
<glyph glyph-name="down-open-big" unicode="&#xe800;" d="M63 570l370-356 372 356q22 26 48 0 26-22 0-48l-396-392q-22-22-48 0l-396 392q-26 26 0 48 24 24 50 0z" horiz-adv-x="866" />

<glyph glyph-name="menu" unicode="&#xe801;" d="M1000 850h-1000v-75h1000z m500-462h-1500v-75h1500z m0-463h-1500v-75h1500z" horiz-adv-x="1500" />

<glyph glyph-name="notification-bell" unicode="&#xe802;" d="M434-150a128 128 0 0 0-127 127 107 107 0 0 0 2 23h-309l128 174v272a310 310 0 0 0 24 119 300 300 0 0 0 66 98 309 309 0 0 0 124 76 130 130 0 0 0-1 18 95 95 0 0 0 27 66 93 93 0 0 0 66 27 93 93 0 0 0 66-27 94 94 0 0 0 27-66 134 134 0 0 0-1-18 309 309 0 0 0 125-76 300 300 0 0 0 65-98 310 310 0 0 0 24-119v-272l128-174h-308a108 108 0 0 0 1-23 123 123 0 0 0-37-89 126 126 0 0 0-90-38z m0 902a284 284 0 0 0 52-4v9a51 51 0 0 1-15 37 53 53 0 0 1-37 15 52 52 0 0 1-36-15 51 51 0 0 1-16-37l1-9a275 275 0 0 0 51 4z m-353-711h706l-88 120v285a263 263 0 0 1-78 188 263 263 0 0 1-187 77 266 266 0 0 1-188-77 266 266 0 0 1-77-188v-285z m270-41a107 107 0 0 1-3-23 86 86 0 0 1 86-86 86 86 0 0 1 61 26 83 83 0 0 1 26 60 102 102 0 0 1-3 23z" horiz-adv-x="868" />

<glyph glyph-name="home" unicode="&#xe803;" d="M830 354a24 24 0 0 1-24-24v-432h-260v271a24 24 0 0 1-24 25h-189a24 24 0 0 1-25-25v-215a24 24 0 0 1 49 0v191h141v-247h-449v593l378 304 388-311a24 24 0 0 1 31 38l-403 323a24 24 0 0 1-31 0l-403-323a24 24 0 0 1-9-19v-629a24 24 0 0 1 24-24h806a24 24 0 0 1 25 24v456a24 24 0 0 1-25 24z" horiz-adv-x="855" />

<glyph glyph-name="calendar" unicode="&#xe804;" d="M923 770h-195v59a21 21 0 0 1-20 21 21 21 0 0 1-21-21v-59h-374v59a21 21 0 0 1-21 21 21 21 0 0 1-20-21v-59h-195a77 77 0 0 1-77-77v-766a77 77 0 0 1 77-77h846a77 77 0 0 1 77 77v766a77 77 0 0 1-77 77z m-846-41h195v-60a21 21 0 0 1 20-20 21 21 0 0 1 21 20v60h374v-60a21 21 0 0 1 21-20 21 21 0 0 1 20 20v60h195a35 35 0 0 0 36-36v-144h-917v144a35 35 0 0 0 35 36z m846-838h-846a35 35 0 0 0-35 36v580h917v-580a35 35 0 0 0-36-36z m-560 485a38 38 0 0 1-39 38 38 38 0 0 1-38-38 38 38 0 0 1 38-39 38 38 0 0 1 39 39z m175 0a38 38 0 0 1-38 38 38 38 0 0 1-38-38 38 38 0 0 1 38-39 38 38 0 0 1 38 39z m176-1a38 38 0 0 1-38 38 38 38 0 0 1-39-38 38 38 0 0 1 39-39 38 38 0 0 1 38 39z m176 0a38 38 0 0 1-39 38 38 38 0 0 1-38-38 38 38 0 0 1 38-39 38 38 0 0 1 39 39z m-527-175a38 38 0 0 1-39 38 38 38 0 0 1-38-38 38 38 0 0 1 38-38 38 38 0 0 1 39 38z m-176-1a38 38 0 0 1-38 38 38 38 0 0 1-39-38 38 38 0 0 1 39-38 38 38 0 0 1 38 38z m351 0a38 38 0 0 1-38 38 38 38 0 0 1-38-38 38 38 0 0 1 38-38 38 38 0 0 1 38 38z m176 0a38 38 0 0 1-38 38 38 38 0 0 1-39-38 38 38 0 0 1 39-38 38 38 0 0 1 38 38z m176 0a38 38 0 0 1-39 38 38 38 0 0 1-38-38 38 38 0 0 1 38-38 38 38 0 0 1 39 38z m-527-175a38 38 0 0 1-39 38 38 38 0 0 1-38-38 38 38 0 0 1 38-38 38 38 0 0 1 39 38z m-176-1a38 38 0 0 1-38 39 38 38 0 0 1-39-39 38 38 0 0 1 39-38 38 38 0 0 1 38 38z m351 0a38 38 0 0 1-38 39 38 38 0 0 1-38-39 38 38 0 0 1 38-38 38 38 0 0 1 38 38z m-269 675a46 46 0 1 0-46-46 46 46 0 0 0 46 46z m414 0a46 46 0 1 0-46-46 46 46 0 0 0 46 46z" horiz-adv-x="1000" />

<glyph glyph-name="invitation" unicode="&#xe805;" d="M354 579h102a13 13 0 0 1 0 27h-102a13 13 0 0 1 0-27z m0 0m311-140h-297a13 13 0 0 1 0-26h297a13 13 0 1 1 0 26z m0 0m0-166h-297a13 13 0 0 1 0-26h297a13 13 0 0 1 0 26z m0 0m343 564c-4 0-7 0-11 0a15 15 0 0 1-4 1l-646 6h-2a166 166 0 0 1-166-165l-5-554h-153a15 15 0 0 1-15-15v-94a159 159 0 0 1 147-159 15 15 0 0 1 3-1h560a16 16 0 0 1 2 0c2 0 5 0 7 0a159 159 0 0 1 157 160v550l268 2a15 15 0 0 1 15 16v93a159 159 0 0 1-157 160z m-845-951a128 128 0 0 0-126 130v79h531v-79a161 161 0 0 1 65-130z m688 791v-661a127 127 0 1 0-253 0v94a15 15 0 0 1-15 15h-379l5 553a136 136 0 0 0 136 136h1l572-6a161 161 0 0 1-67-131z m284-78l-253-3v81a127 127 0 1 0 253 0z m0 0" horiz-adv-x="1171" />

<glyph glyph-name="group" unicode="&#xe806;" d="M270 670a108 108 0 0 1 26 69 107 107 0 0 1-106 107 107 107 0 0 1-107-107 108 108 0 0 1 26-69 152 152 0 0 1-105-145 76 76 0 0 1 21-61c24-21 76-12 94-8a463 463 0 0 0 70 6 463 463 0 0 0 71-6c39-7 71-12 94 8a74 74 0 0 1 21 61 152 152 0 0 1-105 145z m-80 142a75 75 0 0 0 74-74 74 74 0 1 0-148 0 75 75 0 0 0 74 74z m143-324c-11-10-37-5-67 0a521 521 0 0 1-76 8 364 364 0 0 1-76-8c-31-7-56-10-68 0a47 47 0 0 0-9 35c0 60 34 99 101 121a110 110 0 0 1 103 0q102-34 102-121a47 47 0 0 0-10-35z m625 181a108 108 0 0 1 25 69 107 107 0 0 1-213 0 108 108 0 0 1 26-69 152 152 0 0 1-104-146 76 76 0 0 1 20-61c25-21 76-11 94-8a483 483 0 0 0 71 6 463 463 0 0 0 71-6c38-7 70-11 93 8a74 74 0 0 1 21 61 152 152 0 0 1-104 146z m-81 143a75 75 0 0 0 74-74 74 74 0 0 0-148 0 75 75 0 0 0 74 74z m143-324c-11-10-37-5-67 0a521 521 0 0 1-76 8 364 364 0 0 1-76-8 116 116 0 0 0-68 0 47 47 0 0 0-9 35c0 60 34 99 101 121a110 110 0 0 1 104 0q101-34 101-121a47 47 0 0 0-9-35z m-406-414a107 107 0 1 1-161 0 152 152 0 0 1-105-146 76 76 0 0 1 21-61c24-21 75-11 93-8a483 483 0 0 0 71 6 463 463 0 0 0 71-6c39-7 71-11 93 8a74 74 0 0 1 21 61 152 152 0 0 1-104 146z m-81 143a74 74 0 1 0-74-74 75 75 0 0 0 74 74z m144-326c-11-9-37-5-68 0a521 521 0 0 1-76 8 364 364 0 0 1-75-8 116 116 0 0 0-68 0 47 47 0 0 0-10 36c0 59 34 98 102 121a110 110 0 0 1 103 0q102-34 102-121a49 49 0 0 0-10-36z m240 497a354 354 0 0 0-185-296l16-29a389 389 0 0 1 202 323z m-382 440a391 391 0 0 1-185-47l16-29a334 334 0 0 0 167 44 344 344 0 0 0 170-44l16 29a385 385 0 0 1-184 47z m-386-441l-32-2a391 391 0 0 1 218-332l14 31a354 354 0 0 0-200 303z" horiz-adv-x="1067" />

<glyph glyph-name="user-follower" unicode="&#xe807;" d="M846 163l-22-23 112-112h-434v-33h434l-112-112 22-24 153 152z m-262 134a291 291 0 0 1 168 263 289 289 0 0 1-289 289 289 289 0 0 1-289-289 291 291 0 0 1 169-263 462 462 0 0 1-342-446h42a419 419 0 0 0 420 420c233 0 318-27 121 26z m-367 263a246 246 0 0 0 246 247 246 246 0 0 0 247-247 247 247 0 0 0-247-247 247 247 0 0 0-246 247z" horiz-adv-x="1008" />

<glyph glyph-name="statistics" unicode="&#xe808;" d="M1019 424v-530h-212v954h-42v-954h-212v658h-42v-658h-212v276h-43v-276h-212v403h-42v-445h1059v572z" horiz-adv-x="1063" />

<glyph glyph-name="promotion" unicode="&#xe809;" d="M107 449c1 0 39 3 118 10a15 15 0 1 1-2 28l-117-9a15 15 0 0 1 1-29z m0 0m117-40h-117a15 15 0 0 1 0-29h117a15 15 0 0 1 0 29z m0 0m1-79l-117 9a15 15 0 0 1-2-29l117-9a15 15 0 1 1 2 29z m0 0m642 515h-60a55 55 0 0 1-55-55v-31c-139-102-320-157-489-185v38a85 85 0 0 1-170 0v-59c-12-1-23-2-31-2a60 60 0 0 1-57-60v-194a60 60 0 0 1 57-60c8 0 19-1 31-2v-346a34 34 0 0 1 34-34h102a34 34 0 0 1 34 34v326c168-29 350-84 489-185v-32a55 55 0 0 1 55-55h60a55 55 0 0 1 55 55v792a55 55 0 0 1-55 55z m-745-233a56 56 0 1 0 112 0v-43c-43-6-81-11-112-14z m112-723a5 5 0 0 0-5-5h-102a5 5 0 0 0-5 5v344c31-3 69-7 112-14z m86 345v199a15 15 0 0 1-29 0v-194a1862 1862 0 0 1-227 27 31 31 0 0 0-30 31v194a31 31 0 0 0 29 31 1860 1860 0 0 1 228 27v-58a15 15 0 0 1 28 0v64a1163 1163 0 0 1 433 168v-658a1163 1163 0 0 1-432 169z m573-236a26 26 0 0 0-26-26h-60a26 26 0 0 0-26 26v792a26 26 0 0 0 26 26h60a26 26 0 0 0 26-26z m0 0" horiz-adv-x="927" />

<glyph glyph-name="settings" unicode="&#xe80a;" d="M1000 235v230h-112a376 376 0 0 1-31 79l78 78-163 163-76-76a454 454 0 0 1-81 34v107h-230v-107a439 439 0 0 1-82-34l-75 76-164-164 78-77a376 376 0 0 1-31-79h-111v-230h115a421 421 0 0 1 31-74l-82-82 164-164 84 84a347 347 0 0 1 73-29v-120h230v120a385 385 0 0 1 72 29l85-84 163 164-82 82a421 421 0 0 1 32 74z m-38 38h-106a373 373 0 0 0-52-118l76-76-108-109-78 78a371 371 0 0 0-117-49v-111h-154v112a342 342 0 0 0-117 47l-78-77-109 108 77 77a373 373 0 0 0-52 118h-105v154h103a378 378 0 0 0 48 123l-70 71 108 109 70-70a378 378 0 0 0 125 53v99h154v-99a397 397 0 0 0 125-52l70 69 108-108-71-71a378 378 0 0 0 49-124h104z m-462-77a154 154 0 0 1 154 154 154 154 0 0 1-154 154 154 154 0 0 1-154-154 154 154 0 0 1 154-154z m0 39a115 115 0 0 0-115 115 115 115 0 0 0 115 115 116 116 0 0 0 115-115 116 116 0 0 0-115-115z" horiz-adv-x="1000" />

<glyph glyph-name="when-calendar" unicode="&#xe80b;" d="M917 256v427a83 83 0 0 1-84 84h-125v62a21 21 0 0 1-41 0v-62h-375v62a21 21 0 1 1-42 0v-62h-167a83 83 0 0 1-83-84v-666a83 83 0 0 1 83-84h511a229 229 0 1 1 323 323z m-875 427a42 42 0 0 0 41 42h167v-42a42 42 0 1 1 42-41v83h375v-42a42 42 0 1 1 41-41v83h125a42 42 0 0 0 42-42v-125h-833z m41-708a42 42 0 0 0-41 42v500h833v-234a229 229 0 0 1-308-308z m688-83a188 188 0 1 0 187 187 188 188 0 0 0-187-187z m21 196v116a21 21 0 1 1-42 0v-125a21 21 0 0 1 6-15l63-62a21 21 0 1 1 29 29z" horiz-adv-x="1000" />

<glyph glyph-name="pin-location" unicode="&#xe80c;" d="M334 850a333 333 0 0 1-334-334 341 341 0 0 1 45-166l289-500 288 500a341 341 0 0 1 45 166 333 333 0 0 1-333 334z m0-55a278 278 0 0 0 278-279 279 279 0 0 0-38-138l-240-417-241 417a279 279 0 0 0-38 138 278 278 0 0 0 279 279z m0-420a142 142 0 0 1 142 141 143 143 0 0 1-142 143 142 142 0 0 1-142-143 141 141 0 0 1 142-141z m0 55a87 87 0 0 0-87 86 87 87 0 0 0 87 88 88 88 0 0 0 87-88 87 87 0 0 0-87-86z" horiz-adv-x="667" />

<glyph glyph-name="filter" unicode="&#xe80d;" d="M946 850h-892a42 42 0 0 1-37-23 43 43 0 0 1 3-44l327-460 0-1a93 93 0 0 0 18-55v-375a42 42 0 0 1 42-42 43 43 0 0 1 17 3l183 70a40 40 0 0 1 28 39v305a93 93 0 0 0 18 55l0 1 327 460a42 42 0 0 1 3 44 42 42 0 0 1-37 23z m-334-497a145 145 0 0 1-28-86v-298l-168-64v362a145 145 0 0 1-28 86l-317 446h858z m0 0" horiz-adv-x="1000" />

<glyph glyph-name="right-open-big" unicode="&#xe80e;" d="M13-20l358 370-358 372q-26 26 0 48 26 26 48 0l392-394q24-26 0-50l-392-394q-22-26-48 0-26 22 0 48z" horiz-adv-x="465" />

<glyph glyph-name="left-open-big" unicode="&#xe80f;" d="M452-20q26-26 0-48-26-26-48 0l-392 394q-24 24 0 50l392 394q22 26 48 0 26-22 0-48l-358-372z" horiz-adv-x="465" />

<glyph glyph-name="check" unicode="&#xe810;" d="M938 850l-547-885-340 342-51-51 405-406 595 962z" horiz-adv-x="1000" />

<glyph glyph-name="search" unicode="&#xe811;" d="M857 421a428 428 0 0 1-428 429 429 429 0 0 1-429-429 428 428 0 0 1 429-428 427 427 0 0 1 286 109l251-252 29 28-252 251a423 423 0 0 1 114 292z m-277-358a397 397 0 0 0-151-31 377 377 0 0 0-151 31 376 376 0 0 0-124 83 387 387 0 0 0-84 123 397 397 0 0 0-30 152 394 394 0 0 0 30 151 404 404 0 0 0 83 125 396 396 0 0 0 124 83 383 383 0 0 0 152 30 400 400 0 0 0 152-30 397 397 0 0 0 123-83 497 497 0 0 0 48-58 466 466 0 0 0 36-67 396 396 0 0 0 30-151 386 386 0 0 0-30-151 388 388 0 0 0-83-123 349 349 0 0 0-58-48 350 350 0 0 0-66-36z" horiz-adv-x="995" />

<glyph glyph-name="bookmark-fill" unicode="&#xe812;" d="M685 850h-660a25 25 0 0 1-25-25v-926a49 49 0 0 1 78-40l277 199 277-199a50 50 0 0 1 78 40v926a25 25 0 0 1-25 25z m0 0" horiz-adv-x="710" />

<glyph glyph-name="bookmark" unicode="&#xe813;" d="M685 850h-660a25 25 0 0 1-25-25v-926a49 49 0 0 1 78-40l277 199 277-199a50 50 0 0 1 78 40v926a25 25 0 0 1-25 25z m-24-951l-292 209a25 25 0 0 1-28 0l-292-209v902h612z m0 0" horiz-adv-x="710" />

<glyph glyph-name="close" unicode="&#xe814;" d="M1000 801l-50 49-449-450-451 450-50-49 451-451-451-451 50-49 451 451 449-451 50 49-450 451z" horiz-adv-x="1000" />

<glyph glyph-name="plus" unicode="&#xe815;" d="M1000 389h-461v461h-78v-461h-461v-78h461v-461h78v461h461z" horiz-adv-x="1000" />

<glyph glyph-name="arrow-right" unicode="&#xe816;" d="M766 850l-60-62 407-395h-1113v-86h1113l-407-395 60-62 516 500z" horiz-adv-x="1282" />

<glyph glyph-name="arrow-left" unicode="&#xe817;" d="M1282 393h-1113l406 395-59 62-516-500 516-500 59 62-406 395h1113z" horiz-adv-x="1282" />

<glyph glyph-name="calendar1" unicode="&#xe818;" d="M922 768h-195v59a21 21 0 0 1-20 21 21 21 0 0 1-21-21v-59h-372v59a21 21 0 0 1-21 21 21 21 0 0 1-21-21v-59h-194a76 76 0 0 1-76-76v-764a76 76 0 0 1 76-76h844a76 76 0 0 1 76 76v764a76 76 0 0 1-76 76z m-843-41h194v-59a21 21 0 0 1 20-21 21 21 0 0 1 21 21v59h372v-59a21 21 0 0 1 21-21 21 21 0 0 1 21 21v59h194a35 35 0 0 0 35-35v-144h-914v144a35 35 0 0 0 35 35z m843-834h-844a35 35 0 0 0-35 35v579h914v-579a35 35 0 0 0-35-35z m-559 482a38 38 0 0 1-38 39 38 38 0 0 1-38-39 38 38 0 0 1 38-38 38 38 0 0 1 38 38z m175 0a38 38 0 0 1-38 39 38 38 0 0 1-38-39 38 38 0 0 1 38-38 38 38 0 0 1 38 38z m175 0a38 38 0 0 1-38 38 38 38 0 0 1-38-38 38 38 0 0 1 38-38 38 38 0 0 1 38 38z m175 0a38 38 0 0 1-38 38 38 38 0 0 1-38-38 38 38 0 0 1 38-38 38 38 0 0 1 38 38z m-525-175a38 38 0 0 1-38 39 38 38 0 0 1-38-38 38 38 0 0 1 38-39 38 38 0 0 1 38 39z m-175 0a38 38 0 0 1-38 38 38 38 0 0 1-38-38 38 38 0 0 1 38-39 38 38 0 0 1 38 39z m350 0a38 38 0 0 1-38 38 38 38 0 0 1-38-38 38 38 0 0 1 38-39 38 38 0 0 1 38 39z m175 0a38 38 0 0 1-38 38 38 38 0 0 1-38-38 38 38 0 0 1 38-39 38 38 0 0 1 38 39z m175 0a38 38 0 0 1-38 38 38 38 0 0 1-38-38 38 38 0 0 1 38-39 38 38 0 0 1 38 39z m-525-175a38 38 0 0 1-38 39 38 38 0 0 1-38-39 38 38 0 0 1 38-38 38 38 0 0 1 38 39z m-175 0a38 38 0 0 1-38 38 38 38 0 0 1-38-38 38 38 0 0 1 38-39 38 38 0 0 1 38 39z m350 0a38 38 0 0 1-38 38 38 38 0 0 1-38-38 38 38 0 0 1 38-39 38 38 0 0 1 38 39z" horiz-adv-x="1000" />

<glyph glyph-name="art-culture" unicode="&#xe819;" d="M663 305a20 20 0 0 1-22-16 106 106 0 0 0-81-80 156 156 0 0 0-158 35 20 20 0 1 1-29-26 172 172 0 0 1 94-52 208 208 0 0 1 41-4 217 217 0 0 1 63 10 144 144 0 0 1 109 111 20 20 0 0 1-17 22z m272 173a242 242 0 0 1-143 79 1108 1108 0 0 1 140 109c52 50 70 86 55 111-16 29-64 29-150 0a1500 1500 0 0 1-254-120c-16-9-31-19-47-28a105 105 0 0 0 22 100 75 75 0 0 1 10 79 79 79 0 0 1-73 42h-1a485 485 0 0 1-329-132 492 492 0 0 1-159-319 502 502 0 0 1 498-549 533 533 0 0 1 209 41 471 471 0 0 1 154 105 464 464 0 0 1 95 142 413 413 0 0 1 34 155 272 272 0 0 1-61 185z m-396 106c20 13 42 26 64 39a1506 1506 0 0 0 237 113c75 27 106 25 113 22 0-5-6-25-55-70a1243 1243 0 0 0-170-126c-21-14-44-27-67-40-31-18-62-35-93-51a293 293 0 0 1-55 97q12 8 26 16z m-6-130a1002 1002 0 0 0-146-58 98 98 0 0 1-30 52 1004 1004 0 0 0 123 98 255 255 0 0 0 53-92z m424-161c-3-194-177-404-453-404a461 461 0 0 0-10 922h0a41 41 0 0 0 39-20 36 36 0 0 0-6-37 143 143 0 0 1-24-146c-11-7-21-14-31-20l0 0a1040 1040 0 0 1-149-119 97 97 0 0 1-81-8c-40-23-94-132-104-154a20 20 0 0 1 16-28c11-1 42-3 76-3a266 266 0 0 1 110 16 97 97 0 0 1 47 64 1033 1033 0 0 1 178 70c38 19 77 39 116 62 20 11 39 23 58 35h1c162-5 219-122 217-230z m-607 80a59 59 0 0 0-30-47 380 380 0 0 0-134-10 380 380 0 0 0 76 111 59 59 0 0 0 88-54z m-2 356a78 78 0 1 1 78-78 78 78 0 0 1-78 78z m0-117a39 39 0 1 0 39 39 39 39 0 0 0-39-39z m-98-408a78 78 0 1 1 78-78 78 78 0 0 1-78 78z m0-117a39 39 0 1 0 39 39 39 39 0 0 0-39-39z m195 0a78 78 0 1 1 78-78 78 78 0 0 1-78 78z m0-117a39 39 0 1 0 39 39 39 39 0 0 0-39-39z m235 156a78 78 0 1 1 78-78 78 78 0 0 1-78 78z m0-117a39 39 0 1 0 39 39 39 39 0 0 0-39-39z m156 313a78 78 0 1 1 78-79 78 78 0 0 1-78 79z m0-118a39 39 0 1 0 39 39 39 39 0 0 0-39-39z" horiz-adv-x="1000" />

<glyph glyph-name="cuisine" unicode="&#xe81a;" d="M994 844a20 20 0 0 1-20 5l-811-289a107 107 0 0 1-155-132 1047 1047 0 0 1 228-342 1047 1047 0 0 1 342-228 107 107 0 0 1 139 141l282 825a20 20 0 0 1-5 20z m-708-282l86 31a50 50 0 1 0-86-31z m395-631a68 68 0 0 0-88-37 1007 1007 0 0 0-549 549 68 68 0 0 0 126 52 873 873 0 0 1 190-285 873 873 0 0 1 285-191 68 68 0 0 0 36-88z m174 592a50 50 0 0 0-6 1 50 50 0 1 0 36 89z m43 128a89 89 0 1 1-56-166l-39-113-45 34a20 20 0 0 1-23-31l55-42-101-295a106 106 0 0 1-29 18 833 833 0 0 0-454 454 107 107 0 0 1-11 20l52 18a89 89 0 0 1 77-78 90 90 0 0 1 11 0 89 89 0 0 1 75 136l243 87 9-22a20 20 0 1 1 36 15l-8 20 259 93z m-687-325l0 0 0 0z m-30 49a924 924 0 0 0-51 103 20 20 0 0 1-36-15 963 963 0 0 1 53-108 20 20 0 1 1 34 20z m430 225a89 89 0 1 1 77-100 90 90 0 0 1-77 100z m38-94a50 50 0 0 0-49-44 50 50 0 0 0-7 1 50 50 0 0 0 6 99 50 50 0 0 0 7-1 50 50 0 0 0 43-56z m-43-149a89 89 0 0 1-100-76 89 89 0 0 1 77-100 89 89 0 0 1 23 176z m38-94a50 50 0 0 0-49-44 51 51 0 0 0-7 1 50 50 0 0 0 6 99 50 50 0 0 0 7-1 50 50 0 0 0 43-55z m-167 175l-60 8a20 20 0 0 1-5-39l60-8a20 20 0 0 1 5 39z m-30-144l-5 40a20 20 0 0 1-39-5l5-40a20 20 0 1 1 39 5z" horiz-adv-x="1000" />

<glyph glyph-name="fashion-shopping" unicode="&#xe81b;" d="M986 572l-170 189a57 57 0 0 1-42 18h-353a20 20 0 0 1 0-39h34l-156-166-59 166h5a20 20 0 0 1 0 39h-19a56 56 0 0 1-44-20l-168-187a56 56 0 0 1-14-32 20 20 0 0 1 0-3c0 0 0 0 0-1a56 56 0 0 1 13-38l443-556a56 56 0 0 1 44-21h1a56 56 0 0 1 44 21l443 557a56 56 0 0 1-2 73z m-39-16h-211l59 169z m-188 184l-59-166-155 166z m-96-184h-326l163 175z m-459 169l60-169h-211z m-156-208h230l185-521z m489-521l31 88a20 20 0 1 1-36 13l-32-89-180 509h360l-90-255a20 20 0 1 1 37-13l95 268h230z m0 0m49 195a20 20 0 1 1 12-24h0a20 20 0 0 1-12 24z m0 0m-253 549a20 20 0 1 1 0 39h0a20 20 0 0 1 0-39z m0 0" horiz-adv-x="1000" />

<glyph glyph-name="health" unicode="&#xe81c;" d="M829 690a20 20 0 1 1 20-19 20 20 0 0 1-20 19z m102 20a240 240 0 0 1-182 81 283 283 0 0 1-205-87 346 346 0 0 1-44-55 346 346 0 0 1-44 55 283 283 0 0 1-204 87c-149 0-252-124-252-271 0-199 211-367 487-606a20 20 0 0 1 26 0c277 240 487 407 487 606a285 285 0 0 1-69 190z m-431-756c-261 226-461 388-461 566 0 132 91 232 213 232a241 241 0 0 0 175-74 291 291 0 0 0 55-76 20 20 0 0 1 18-12h0a20 20 0 0 1 18 12 291 291 0 0 0 55 76 241 241 0 0 0 176 74c121 0 212-100 212-232 0-182-213-351-461-566z m397 667a20 20 0 0 1-34-18 181 181 0 0 0 20-83c0-57-27-116-85-189a20 20 0 0 1 31-24c63 79 93 147 93 213a218 218 0 0 1-25 101z m-209-204h-110v109a20 20 0 0 1-19 20h-118a20 20 0 0 1-19-20v-109h-110a20 20 0 0 1-19-20v-117a20 20 0 0 1 19-19h110v-110a20 20 0 0 1 19-19h117a20 20 0 0 1 20 19v110h109a20 20 0 0 1 20 19v117a20 20 0 0 1-19 20z m-20-117h-109a20 20 0 0 1-20-20v-109h-78v109a20 20 0 0 1-20 20h-109v78h109a20 20 0 0 1 20 19v110h78v-110a20 20 0 0 1 20-19h109z" horiz-adv-x="1000" />

<glyph glyph-name="business" unicode="&#xe81d;" d="M950 650h-217v67a83 83 0 0 1-83 83h-300a83 83 0 0 1-83-83v-67h-217a50 50 0 0 1-50-50v-371a50 50 0 0 1 33-47v-232a50 50 0 0 1 50-50h834a50 50 0 0 1 50 50v232a50 50 0 0 1 33 47v371a50 50 0 0 1-50 50z m-650 67a50 50 0 0 0 50 50h300a50 50 0 0 0 50-50v-67h-33v67a17 17 0 0 1-17 16h-300a17 17 0 0 1-17-16v-67h-33z m333-67h-266v50h266z m300-700a17 17 0 0 0-16-17h-834a17 17 0 0 0-16 17v226l366-50v-43a50 50 0 0 1 50-50h34a50 50 0 0 1 50 50v43l366 50z m-400 133a17 17 0 0 0-16-16h-34a17 17 0 0 0-16 16v100a17 17 0 0 0 16 17h34a17 17 0 0 0 16-17z m434 146a17 17 0 0 0-15-17l-4 0-381-53v24a50 50 0 0 1-50 50h-34a50 50 0 0 1-50-50v-24l-385 54a17 17 0 0 0-15 16v371a17 17 0 0 0 17 17h900a17 17 0 0 0 17-17z m0 0" horiz-adv-x="1000" />

<glyph glyph-name="music" unicode="&#xe81e;" d="M31 503a58 58 0 0 1 25-6 76 76 0 0 1 16 2 52 52 0 0 1 46 62h0l-37 168 154 34 27-125a73 73 0 0 1-29 0 52 52 0 0 1-46-62 50 50 0 0 1 52-39 75 75 0 0 1 16 2 52 52 0 0 1 45 62h0l-49 224a26 26 0 0 1-30 20l-161-35a26 26 0 0 1-19-31l39-180a73 73 0 0 1-29-1 66 66 0 0 1-36-20 46 46 0 0 1-10-41 48 48 0 0 1 26-34z m217 64c-6-1-28-4-32 16-4 17 13 24 24 26a53 53 0 0 0 11 1 19 19 0 0 0 21-15h0c4-20-17-26-24-28z m-24 249l5-25-154-33-5 24z m-187-257a38 38 0 0 0 20 10 53 53 0 0 0 11 2 19 19 0 0 0 21-16h0c5-20-16-26-23-27a36 36 0 0 0-23 1 19 19 0 0 0-10 14 17 17 0 0 0 4 16z m0 0m956-441a26 26 0 0 1-14 14l-153 59a26 26 0 0 1-33-14l-67-172a72 72 0 0 1-25 15 66 66 0 0 1-41 4 46 46 0 0 1-31-29 48 48 0 0 1 3-43 64 64 0 0 1 32-26 70 70 0 0 1 26-5 49 49 0 0 1 47 32l62 160 147-57-46-119a72 72 0 0 1-25 15 52 52 0 0 1-72-25 48 48 0 0 1 3-43 64 64 0 0 1 32-26 71 71 0 0 1 26-5 49 49 0 0 1 47 32l83 214a26 26 0 0 1-1 19z m-318-165a35 35 0 0 0-18 14 19 19 0 0 0-1 17 17 17 0 0 0 12 11 25 25 0 0 0 6 1 46 46 0 0 0 17-3 37 37 0 0 0 18-13 17 17 0 0 0 1-17c-8-19-29-12-35-10z m134 187l9 23 147-57-9-23z m40-255a35 35 0 0 0-18 14 19 19 0 0 0-1 17 18 18 0 0 0 18 12 47 47 0 0 0 17-3 37 37 0 0 0 18-13 17 17 0 0 0 1-17c-8-19-29-12-35-10z m0 0m-419 35c-89-65-225-44-316 49a276 276 0 0 0-81 196 198 198 0 0 0 59 141 194 194 0 0 0 99 50 235 235 0 0 1 131 71 15 15 0 1 1-22 20 207 207 0 0 0-115-63 223 223 0 0 1-113-57 227 227 0 0 1-69-162 305 305 0 0 1 90-216 308 308 0 0 1 217-96 232 232 0 0 1 137 43 15 15 0 1 1-17 24z m0 0m251 292a142 142 0 0 1 42 113 232 232 0 0 1-38 107l93 93a15 15 0 1 1-21 20l-257-257a112 112 0 0 1-61 62l302 303 62-62-2-2a15 15 0 0 1 21-20l3 4a24 24 0 0 1 8-2h0a24 24 0 0 1 18 9l15 17 17-16a15 15 0 0 1 20 20l-18 18 25 28 17-18a15 15 0 0 1 20 21l-18 18 24 28 12-13a15 15 0 0 1 21 21l-14 14 18 20a24 24 0 0 1-1 33l-69 67a24 24 0 0 1-33 1l-19-17-14 14a15 15 0 0 1-21-21l13-12-27-24-19 18a15 15 0 0 1-21-20l18-18-28-24-18 18a15 15 0 0 1-20-21l16-16-17-16a24 24 0 0 1-7-25l-141-140c-81 53-164 53-216 0a192 192 0 0 1-32-40 15 15 0 1 1 25-15 164 164 0 0 0 27 35c58 57 137 22 175-1l-156-156c-3 0-5 0-8 0a111 111 0 1 1 111-111c0 3 0 5 0 8l156 156c23-38 57-118-4-178a142 142 0 0 0-32-25 238 238 0 0 1-123-167 194 194 0 0 0-34-81 15 15 0 1 1 23-17 223 223 0 0 1 40 93 209 209 0 0 0 108 147 171 171 0 0 1 39 29z m222 602l62-61-133-150-79 79z m-448-625a82 82 0 1 0 24 58 82 82 0 0 0-24-58z m0 0m-328 8a50 50 0 0 1 0-71l148-149a50 50 0 0 1 72 71l-149 149a50 50 0 0 1-71 0z m199-169a21 21 0 0 0-30-30l-148 148a21 21 0 1 0 30 30z m0 0m408 511a15 15 0 0 1 10 24l-31 31a15 15 0 0 1-20-20l31-31a15 15 0 0 1 10-4z m0 0m-43-43a15 15 0 0 1 10 24l-31 31a15 15 0 1 1-20-20l31-31a15 15 0 0 1 10-4z m0 0m-43-43a15 15 0 0 1 10 24l-31 32a15 15 0 0 1-20-21l31-31a15 15 0 0 1 10-4z m0 0m-43-43a15 15 0 0 1 10 25l-31 31a15 15 0 0 1-20-21l31-31a15 15 0 0 1 10-4z m0 0m-84 13a15 15 0 0 1 0-21l31-31a15 15 0 0 1 20 21l-31 31a15 15 0 0 1-20 0z m0 0m292 274a15 15 0 1 1 0-20 15 15 0 0 1 0 20z m0 0m34-35a15 15 0 1 1 0-20 15 15 0 0 1 0 20z m0 0m9 79a15 15 0 1 1 0-21 15 15 0 0 1 0 21z m0 0m35-35a15 15 0 1 1 0-20 15 15 0 0 1 0 20z m0 0m9 78a15 15 0 1 1 0-20 15 15 0 0 1 0 20z m0 0m35-34a15 15 0 1 1 0-21 15 15 0 0 1 0 21z m0 0" horiz-adv-x="1000" />

<glyph glyph-name="nightout" unicode="&#xe81f;" d="M563 269l328 391 74 87a20 20 0 0 1-15 32h-753l-52 64a20 20 0 0 1-30-25l32-38h-97a20 20 0 0 1-15-33l73-86h0l328-392a84 84 0 0 1 15-14v-279l-97-59a36 36 0 0 1 18-67h256a36 36 0 0 1 18 67l-97 59v280a83 83 0 0 1 14 13z m345 471l-41-47h-598l-39 47z m-729 0l40-47h-87l-40 47z m-14-86h86l124-150a82 82 0 0 1 101-123l49-59a20 20 0 0 1 30 25l-49 59a82 82 0 0 1-101 123l-103 125h532l-301-360a44 44 0 0 0-67 0z m275-242a43 43 0 1 0 43 43 43 43 0 0 0-43-43z m70-172v-276a20 20 0 0 1 10-16l98-59h-236l98 59a20 20 0 0 1 10 16v276a83 83 0 0 1 20 0z m0 0m101 229a20 20 0 0 1 28 2l88 107 1 0a20 20 0 0 1 2 28 20 20 0 0 1-30 0l-91-110a20 20 0 0 1 2-27z m0 0m-48-66a20 20 0 1 1-11 22 20 20 0 0 1 11-22z m0 0" horiz-adv-x="1000" />

<glyph glyph-name="sport" unicode="&#xe820;" d="M903 646a500 500 0 0 1-897-220 496 496 0 0 1 62-328l0 0a509 509 0 0 1 29-44 500 500 0 0 1 289-191c5-1 10-2 15-3a20 20 0 0 1 4-1 499 499 0 0 1 191 0 20 20 0 0 1 2 1 496 496 0 0 1 127 43 20 20 0 0 1-18 35 465 465 0 0 0-74-30l81 141 159 30a451 451 0 0 0-47-54 20 20 0 0 1 28-28 496 496 0 0 1 77 99l0 1a501 501 0 0 1 65 194q0 1 0 1c1 6 2 12 2 18a500 500 0 0 1-95 336z m-333 160a457 457 0 0 0 262-136l-24-205-153-34-135 98v146l30 22a20 20 0 0 1-23 32l-28-21-134 83a459 459 0 0 0 205 15z m-198-404l64 46 64 47 127-93-49-149h-157z m-145 320a465 465 0 0 0 91 51l162-99v-145l-135-98-154 34-31 196a466 466 0 0 0 67 61z m-182-302a459 459 0 0 0 82 201l26-165-114-116a467 467 0 0 0 6 80z m-2-131l137 139 154-35 51-157-96-148-191 37a456 456 0 0 0-55 164z m86-212l-2 3 159-31 81-141a461 461 0 0 0-238 169z m452-181a458 458 0 0 0-161 0l-99 170 96 148h166l96-148z m320 228l-190-36-96 148 51 157 154 34 136-140a463 463 0 0 0-55-163z m59 215l-113 117 20 173c1-2 3-4 5-6a460 460 0 0 0 88-284z m-353 427a20 20 0 1 1 6-14 20 20 0 0 1-6 14z m189-790a20 20 0 1 1 6-14 20 20 0 0 1-6 14z" horiz-adv-x="1000" />

<glyph glyph-name="kids-famliy" unicode="&#xe821;" d="M962 686a200 200 0 0 1-48 97l0 0a186 186 0 0 1-62 47l-1 0a201 201 0 0 1-209-22l0 0a236 236 0 0 1-53-62h0l0-1a201 201 0 0 1-24-116 19 19 0 0 1 11-16 72 72 0 0 1 11-4 184 184 0 0 1 93-108 181 181 0 0 1-50-37 19 19 0 0 1 29-27 144 144 0 0 0 22 20 84 84 0 0 1 77-58h3a83 83 0 0 1 76 61 143 143 0 0 0 67-120v-202l-177-114a19 19 0 1 1 21-33l186 121a19 19 0 0 1 9 16v212a180 180 0 0 1-99 161 185 185 0 0 1 102 154 73 73 0 0 1 14 17 19 19 0 0 1 2 14z m-201-248h-3a47 47 0 0 0-43 49c0 0 0 1 0 1a185 185 0 0 1 87-2 48 48 0 0 0-41-48z m1 83a145 145 0 0 0-133 87 73 73 0 0 1 52 59 276 276 0 0 1 35-3 264 264 0 0 1 111 24 73 73 0 0 1 70-52 72 72 0 0 1 7 1 146 146 0 0 0-142-116z m135 154a34 34 0 0 0-34 34v10a19 19 0 0 1-29 17 221 221 0 0 0-118-33 234 234 0 0 0-50 5 19 19 0 0 1-23-19v-11a34 34 0 0 0-34-34 34 34 0 0 0-4 0l-1 0-1 0q0 3 0 5a162 162 0 0 0 20 78l0 0a199 199 0 0 0 43 50l0 0a162 162 0 0 0 168 18l2 0a147 147 0 0 0 48-37l1-1a161 161 0 0 0 37-71 34 34 0 0 0-25-11z m-300-497a149 149 0 0 1 57 197 20 20 0 0 1-2 2 149 149 0 0 1-262 0 20 20 0 0 1-1-2 149 149 0 0 1 57-197 164 164 0 0 1-89-145v-71a19 19 0 0 1 9-17l145-92a19 19 0 0 1 21 0l145 92a19 19 0 0 1 9 16l-1 72a165 165 0 0 1-88 145z m-76 239a110 110 0 0 0 85-40 317 317 0 0 0-169 0 110 110 0 0 0 84 40z m-110-110a110 110 0 0 0 6 36 353 353 0 0 1 208 0 110 110 0 1 0-214-36z m145-145a35 35 0 0 0-33-31h-3a37 37 0 0 0-34 31 150 150 0 0 1 70 0z m-35-270l-125 80v61a125 125 0 0 0 56 104 76 76 0 0 1 68-45h3a73 73 0 0 1 66 46 126 126 0 0 0 58-106l0-60z m-139 522a19 19 0 0 1-6 26 181 181 0 0 1-19 10 183 183 0 0 1 62 52 68 68 0 0 1 90 64v48a236 236 0 0 1-226 236h0c-6 0-10 0-15 0a236 236 0 0 1-230-236v-48a68 68 0 0 1 89-64 183 183 0 0 1 70-55 180 180 0 0 1-97-160v-159a19 19 0 0 1 9-17l176-114a19 19 0 1 1 21 33l-167 108v149a141 141 0 0 0 56 112 86 86 0 0 1 77-61h3a89 89 0 0 1 77 71l3-2a19 19 0 0 1 27 7z m-229 271a139 139 0 0 1-19-71v-48a29 29 0 0 0-11-23 19 19 0 0 1-2-1 29 29 0 0 0-44 24v48a196 196 0 0 0 192 197c4 0 8 0 12 0a196 196 0 0 0 189-196v-49a29 29 0 0 0-45-24 20 20 0 0 1-1 1 29 29 0 0 0-11 23v48a140 140 0 0 1-119 138 19 19 0 0 1-22-18 197 197 0 0 0-8-40h-94a19 19 0 0 1-17-9z m122-308h-3a53 53 0 0 0-44 54 19 19 0 0 1 0 5 187 187 0 0 1 89-1c-1-28-23-58-42-58z m-2 92a144 144 0 0 0-114 56 67 67 0 0 1 14 41v48a101 101 0 0 0 9 42h97a19 19 0 0 1 18 12 234 234 0 0 1 10 41 101 101 0 0 0 67-95v-48a67 67 0 0 1 14-41 144 144 0 0 0-115-56z" horiz-adv-x="1000" />

<glyph glyph-name="volunteer" unicode="&#xe822;" d="M947 706a61 61 0 0 1-84 56 61 61 0 0 1-84 44 61 61 0 0 1-118 0 61 61 0 0 1-86-57v-153a62 62 0 0 1-97-7c-1-2-2-3-3-5a59 59 0 0 1-49 3 59 59 0 0 1-79 41 59 59 0 0 1-112 0 59 59 0 0 1-81-55v-141a60 60 0 0 1-100-55l20-104a211 211 0 0 1 59-109l36-37v-62h-20a20 20 0 0 1-20-20v-176a20 20 0 0 1 39 0v157h255v-157a20 20 0 0 1 39 0v176a20 20 0 0 1-19 20h-20v62l21 22a211 211 0 0 1 63 150v82a223 223 0 0 1 45-66l40-39v-76h-24a20 20 0 0 1-19-20v-311a20 20 0 1 1 39 0v213h94a20 20 0 1 1 0 40h-94v39h273v-292a20 20 0 0 1 39 0v311a20 20 0 0 1-19 20h-23v76l23 23a223 223 0 0 1 66 159v20a20 20 0 0 1-39 0v-20a184 184 0 0 0-54-131l-29-29a20 20 0 0 1-6-14v-84h-188v84a20 20 0 0 1-6 14l-45 45a184 184 0 0 0-51 95l-22 111a23 23 0 0 0 45 10l11-46a26 26 0 0 1 51 6v230a22 22 0 0 0 44 3v-129a19 19 0 0 1 0-2v-12a20 20 0 1 1 39 0v140c0 2 0 3 0 4v36a22 22 0 0 0 45 0v-36c0-1 0-2 0-4v-126a21 21 0 0 1 0-2v-12a20 20 0 1 1 39 0v143a22 22 0 0 0 44-3v-39c0-2 0-3 0-4v-83a21 21 0 0 1 0-2v-12a20 20 0 1 1 39 0v99a22 22 0 0 0 44-2v-71a20 20 0 1 1 39 0v71z m-480-407a172 172 0 0 0-50-122l-28-28a20 20 0 0 1-5-13v-71h-175v71a20 20 0 0 1-6 13l-43 43a172 172 0 0 0-47 89l-21 104a21 21 0 0 0 17 24 21 21 0 0 0 23-15l11-44a25 25 0 0 1 50 6v217a20 20 0 0 0 39 2v-120a20 20 0 0 1 0-3v-11a20 20 0 1 1 39 0v132c0 1 0 3 0 4v33a20 20 0 0 0 40 0v-33c0-1 0-3 0-4v-118a20 20 0 0 1 0-3v-11a20 20 0 1 1 39 0v134a20 20 0 0 0 39-2v-37c0-1 0-3 0-4v-77a20 20 0 0 1 0-3v-11a20 20 0 0 1 39 0v93a20 20 0 0 0 40-2z m0 0m461 277a20 20 0 1 1 14-6 20 20 0 0 1-14 6z m0 0m-168-454a20 20 0 1 1 14-6 20 20 0 0 1-14 6z m0 0" horiz-adv-x="1000" />

<glyph glyph-name="education" unicode="&#xe823;" d="M967 523l-399 195a163 163 0 0 1-127 0l-408-195a49 49 0 0 1-33-44c0-10 5-28 33-43l34-16v-184a56 56 0 0 1-36-51 57 57 0 0 1 34-52l-51-164h144l-51 164a56 56 0 0 1-2 104v163l61-29v-239a19 19 0 0 1 3-10 416 416 0 0 1 330-152 414 414 0 0 1 329 152 19 19 0 0 1 4 10v237l135 67a49 49 0 0 1 33 43 51 51 0 0 1-33 44z m-172-385a383 383 0 0 0-296-133 383 383 0 0 0-295 133v216l237-113a155 155 0 0 1 63-12 140 140 0 0 1 64 13l227 111z m156 330l-138-68a13 13 0 0 1-12-7l-249-120a127 127 0 0 0-96 0l-306 147 352 41a18 18 0 0 1-4 36l-407-49-42 20a23 23 0 0 0-12 10c0 1 2 6 12 10l408 196a118 118 0 0 0 47 10 116 116 0 0 0 48-10l399-194c10-5 12-10 12-12a32 32 0 0 0-12-10z" horiz-adv-x="1000" />

<glyph glyph-name="category" unicode="&#xe824;" d="M957 842h-597c-20 0-36-4-36-35v-266h-281c-19 0-35-4-35-35v-615c0-31 16-33 35-33h597c20 0 36 2 36 33v268h281c19 0 35 7 35 38v610c0 31-16 35-35 35z m-316-928c0-1 0-23-1-23h-597v616h597z m316 301c0 0 1-18 0-18h-281v310c0 30-16 34-36 34h-280l0 266h597v-592z" horiz-adv-x="1000" />

<glyph glyph-name="globe" unicode="&#xe825;" d="M854 704a511 511 0 0 1-159 107 505 505 0 0 1-195 39 505 505 0 0 1-195-39 511 511 0 0 1-159-107 511 511 0 0 1-107-159 505 505 0 0 1-39-195 505 505 0 0 1 39-195 511 511 0 0 1 107-159 511 511 0 0 1 159-107 505 505 0 0 1 195-39 505 505 0 0 1 195 39 511 511 0 0 1 159 107 511 511 0 0 1 107 159 505 505 0 0 1 39 195 505 505 0 0 1-39 195 511 511 0 0 1-107 159z m-678-30a458 458 0 0 0 145 99 473 473 0 0 0 113 31 611 611 0 0 1-138-170c-6-12-12-24-17-36a750 750 0 0 0-129 49c8 10 17 19 26 27z m503 99a458 458 0 0 0 145-99c9-8 18-17 26-27a750 750 0 0 0-129-49c-5 12-11 24-17 36a611 611 0 0 1-138 170 473 473 0 0 0 113-31z m-200-204a882 882 0 0 0-159 19c4 9 8 18 12 26a591 591 0 0 0 147 174z m42 219a591 591 0 0 0 147-174c4-8 9-17 13-26a882 882 0 0 0-160-19z m-443-259a440 440 0 0 0 47 85 732 732 0 0 1 137-54 548 548 0 0 1-19-61 575 575 0 0 1-19-128h-182a451 451 0 0 0 36 158z m698-158a575 575 0 0 1-19 128 548 548 0 0 1-19 61 732 732 0 0 1 137 54 440 440 0 0 0 48-85 451 451 0 0 0 35-158z m-297 0h-214a579 579 0 0 0 18 117 552 552 0 0 0 20 62 868 868 0 0 1 176-23z m42 156a868 868 0 0 1 176 23 552 552 0 0 0 20-62 579 579 0 0 0 18-117h-214z m-396-441a440 440 0 0 0-47 85 451 451 0 0 0-36 158h182a575 575 0 0 1 19-127 548 548 0 0 1 19-62 732 732 0 0 1-137-54z m354 87a868 868 0 0 1-176-23 552 552 0 0 0-20 62 579 579 0 0 0-18 117h214z m42 156h214a579 579 0 0 0-18-117 552 552 0 0 0-20-62 868 868 0 0 1-176 23z m402-158a440 440 0 0 0-48-85 732 732 0 0 1-137 54 548 548 0 0 1 19 62 575 575 0 0 1 19 127h182a451 451 0 0 0-35-158z m-444-259a591 591 0 0 0-147 174c-4 8-8 17-12 26a882 882 0 0 0 159 19z m42 219a882 882 0 0 0 160-19c-4-9-9-18-13-26a591 591 0 0 0-147-174z m-200-203a458 458 0 0 0-145 98c-9 9-18 17-26 27a750 750 0 0 0 129 49c5-12 11-24 17-36a611 611 0 0 1 138-170 473 473 0 0 0-113 31z m503 98a458 458 0 0 0-145-99 473 473 0 0 0-113-31 611 611 0 0 1 138 171c6 11 12 23 17 35a750 750 0 0 0 129-49c-8-10-17-18-26-27z" horiz-adv-x="1000" />

<glyph glyph-name="info" unicode="&#xe826;" d="M500 811a459 459 0 1 0-179-36 458 458 0 0 0 179 36m0 37a498 498 0 1 1 498-498 498 498 0 0 1-498 498z m0-782a19 19 0 0 0-19 19v305a19 19 0 0 0 38 0v-305a19 19 0 0 0-19-19z m2 542a45 45 0 1 0-45-44 45 45 0 0 0 45 44z" horiz-adv-x="1000" />

<glyph glyph-name="user" unicode="&#xe827;" d="M584 297a291 291 0 0 1 169 263 290 290 0 0 1-290 290 290 290 0 0 1-289-290 291 291 0 0 1 169-263 463 463 0 0 1-343-447h42a420 420 0 0 0 421 421 420 420 0 0 0 421-421h42a463 463 0 0 1-342 447z m-368 263a246 246 0 0 0 247 248 246 246 0 0 0 247-248 248 248 0 0 0-247-247 248 248 0 0 0-247 247z" horiz-adv-x="927" />

<glyph glyph-name="others" unicode="&#xe828;" d="M133 483c-73 0-133-59-133-133s60-133 133-133 134 60 134 133-60 133-134 133z m0-233c-55 0-100 45-100 100s45 100 100 100 100-45 100-100-44-100-100-100z m734 233c-74 0-134-59-134-133s60-133 134-133 133 60 133 133-60 133-133 133z m0-233c-55 0-100 45-100 100s45 100 100 100 100-45 100-100-45-100-100-100z m-367 233c-73 0-133-59-133-133s60-133 133-133 133 60 133 133-59 133-133 133z m0-233c-55 0-100 45-100 100s45 100 100 100 100-45 100-100-45-100-100-100z" horiz-adv-x="1000" />

<glyph glyph-name="attendance" unicode="&#xe829;" d="M577 301a285 285 0 0 1 165 258 283 283 0 0 1-283 284 283 283 0 0 1-282-284 285 285 0 0 1 164-258 453 453 0 0 1-334-438h41a412 412 0 0 0 121 292 409 409 0 0 0 290 120c109 1 316-27 118 26z m-359 258a242 242 0 0 0 70 172 240 240 0 0 0 171 70 240 240 0 0 0 171-70 242 242 0 0 0 71-172 242 242 0 0 0-242-242 242 242 0 0 0-241 242z m741-237l-250-403-155 156-23-23 184-185 272 438z" horiz-adv-x="1002" />

<glyph glyph-name="visitors" unicode="&#xe82a;" d="M582 298a287 287 0 0 1 167 260 285 285 0 0 1-285 285 285 285 0 0 1-286-285 287 287 0 0 1 167-260 456 456 0 0 1-338-440h42a419 419 0 0 0 38 175 407 407 0 0 0 83 118 414 414 0 0 0 294 121c110 1 318-27 118 26z m-362 260a243 243 0 0 0 71 172 243 243 0 0 0 173 71 243 243 0 0 0 172-71 243 243 0 0 0 71-172 244 244 0 0 0-243-244 244 244 0 0 0-244 244z m519-391c-82 0-149-41-254-154 74-78 138-155 254-155 117 0 201 99 253 152-55 66-138 157-253 157z m0-28c93 0 162-66 215-127-52-55-122-126-215-126-94 0-149 57-215 127 89 92 147 126 215 126z m0-207a80 80 0 0 1 80 81 80 80 0 0 1-80 80 80 80 0 0 1-81-80 80 80 0 0 1 81-81z m0 28a52 52 0 0 0-52 53 52 52 0 0 0 52 52 52 52 0 0 0 52-52 52 52 0 0 0-52-53z" horiz-adv-x="1003" />

<glyph glyph-name="user-follower1" unicode="&#xe82b;" d="M984 403l-19-20 93-93h-155v-27h155l-93-93 19-20 127 127z m-400-106a291 291 0 0 1 169 264 290 290 0 0 1-290 289 290 290 0 0 1-289-289 291 291 0 0 1 169-264 463 463 0 0 1-343-447h42a420 420 0 0 0 421 421 420 420 0 0 0 421-421h43a463 463 0 0 1-343 447z m-368 264a247 247 0 0 0 247 247 247 247 0 0 0 248-247 248 248 0 0 0-248-248 248 248 0 0 0-247 248z" horiz-adv-x="1114" />

<glyph glyph-name="grid-fill" unicode="&#xe82c;" d="M16 850h408a16 16 0 0 0 15-16v-407a16 16 0 0 0-15-16h-408a16 16 0 0 0-16 16v407a16 16 0 0 0 16 16z m0 0m561 0h407a16 16 0 0 0 16-16v-407a16 16 0 0 0-16-16h-407a16 16 0 0 0-16 16v407a16 16 0 0 0 16 16z m0 0m-561-561h408a16 16 0 0 0 15-16v-407a16 16 0 0 0-15-16h-408a16 16 0 0 0-16 16v407a16 16 0 0 0 16 16z m0 0m561 0h407a16 16 0 0 0 16-16v-407a16 16 0 0 0-16-16h-407a16 16 0 0 0-16 16v407a16 16 0 0 0 16 16z m0 0" horiz-adv-x="1000" />

<glyph glyph-name="grid" unicode="&#xe82d;" d="M447 828a22 22 0 0 1-22 22h-403a22 22 0 0 1-22-22v-402a22 22 0 0 1 22-23h403a22 22 0 0 1 22 23z m-45-380h-357v358h357z m0 0m598 380a22 22 0 0 1-22 22h-402a22 22 0 0 1-23-22v-402a22 22 0 0 1 23-23h402a22 22 0 0 1 22 23z m-44-380h-358v358h358z m0 0m-509-173a22 22 0 0 1-23 22h-402a22 22 0 0 1-22-22v-403a22 22 0 0 1 22-22h403a22 22 0 0 1 22 22z m-45-378h-357v355h357z m0 0m598 378a22 22 0 0 1-22 22h-402a22 22 0 0 1-23-22v-403a22 22 0 0 1 23-22h402a22 22 0 0 1 22 22z m-44-378h-358v355h358z m0 0" horiz-adv-x="1000" />

<glyph glyph-name="map-fill" unicode="&#xe82e;" d="M478 452v151a122 122 0 0 1 69 35 124 124 0 0 1 36 89 122 122 0 0 1-36 87 123 123 0 0 1-88 36 123 123 0 0 1-87-36 122 122 0 0 1-37-87 124 124 0 0 1 37-89 122 122 0 0 1 68-35v-136l-135 54v-528l308-124v529z m-44 249a35 35 0 0 0-10 25 35 35 0 0 0 10 25 35 35 0 0 0 25 10 35 35 0 0 0 25-10 35 35 0 0 0 10-25 35 35 0 0 0-10-25 35 35 0 0 0-25-10 35 35 0 0 0-25 10z m217-301v-530l267 141v530z m-384 121l-267-142v-529l267 141z" horiz-adv-x="918" />

<glyph glyph-name="map" unicode="&#xe82f;" d="M593 389l-134 63v152a123 123 0 0 1 105 123 124 124 0 0 1-124 123 124 124 0 0 1-124-123 123 123 0 0 1 105-123v-136l-136 63-285-152v-529l287 152 308-141 285 150v530z m-239 338a86 86 0 0 0 86 85 86 86 0 0 0 86-85 85 85 0 0 0-86-87 85 85 0 0 0-86 87z m105-433v116l116-54v-445l-270 125v445l116-54v-133z m-421 63l229 122v-444l-229-122z m804-323l-229-121v444l229 121z" horiz-adv-x="880" />

<glyph glyph-name="search-calendar" unicode="&#xe830;" d="M844 299v396a77 77 0 0 1-77 78h-115v58a19 19 0 1 1-38 0v-58h-345v58a19 19 0 1 1-39 0v-58h-153a77 77 0 0 1-77-78v-618a77 77 0 0 1 77-78h470a210 210 0 0 1 369 87 214 214 0 0 1-72 213z m-806 396a39 39 0 0 0 39 39h153v-39a39 39 0 1 1 39-38v77h345v-39a39 39 0 1 1 38-38v77h115a39 39 0 0 0 39-39v-116h-768z m39-657a39 39 0 0 0-39 39v464h768v-217a209 209 0 0 1-245-39 214 214 0 0 1-39-247z m633-78a174 174 0 1 0 173 175 173 173 0 0 0-173-175z m165 55l127-127-35-35-127 127z" horiz-adv-x="1000" />

<glyph glyph-name="search-user" unicode="&#xe831;" d="M575 297a291 291 0 0 1 166 263 287 287 0 0 1-285 290 287 287 0 0 1-285-290 291 291 0 0 1 166-263 461 461 0 0 1-337-447h42a431 431 0 0 0 38 178 414 414 0 0 0 83 120 410 410 0 0 0 293 123c110 0 318-28 119 26z m-362 263a248 248 0 0 0 71 175 241 241 0 0 0 172 73 241 241 0 0 0 172-73 248 248 0 0 0 71-175 246 246 0 0 0-243-247 246 246 0 0 0-243 247z m650-600a163 163 0 1 0 28 29l109-109-29-29-108 109z m-100 7a122 122 0 1 1-122 122 122 122 0 0 1 122-122z" horiz-adv-x="1000" />

<glyph glyph-name="error" unicode="&#xe832;" d="M500 850c-276 0-500-224-500-500s224-500 500-500 500 224 500 500-224 500-500 500z m0-962c-254 0-461 208-461 462s207 462 461 462 462-207 462-462-207-462-462-462z m187 649c-8 7-20 7-27 0l-160-160-159 160c-8 7-20 7-28 0s-7-20 0-27l160-160-160-159c-7-8-7-20 0-28 4-3 9-5 14-5s10 2 14 5l159 160 160-160c3-3 8-5 13-5s10 2 14 5c7 8 7 20 0 28l-160 159 160 160c7 7 7 19 0 27z" horiz-adv-x="1000" />

<glyph glyph-name="success" unicode="&#xe833;" d="M500 850c-276 0-500-224-500-500s224-500 500-500 500 224 500 500-224 500-500 500z m0-962c-254 0-461 208-461 462s207 462 461 462 462-207 462-462-207-462-462-462z m236 667l-296-332-178 142c-8 7-20 5-27-3-7-8-5-20 3-27l192-154c4-3 8-4 12-4 6 0 11 2 15 6l307 347c7 8 7 20-1 27-8 7-20 6-27-2z" horiz-adv-x="1000" />

<glyph glyph-name="warning" unicode="&#xe834;" d="M500 850c-276 0-500-224-500-500s224-500 500-500 500 224 500 500-224 500-500 500z m0-962c-254 0-461 208-461 462s207 462 461 462 462-207 462-462-207-462-462-462z m0 770c-11 0-19-9-19-19v-424c0-10 8-19 19-19s19 9 19 19v424c0 10-8 19-19 19z m0-519c-11 0-19-9-19-20v-38c0-11 8-19 19-19s19 8 19 19v38c0 11-8 20-19 20z" horiz-adv-x="1000" />

<glyph glyph-name="more" unicode="&#xe835;" d="M110 460q46 0 78-32t32-78q0-44-32-77t-78-33-78 33-32 77q0 46 32 78t78 32z m350 0q46 0 78-32t32-78q0-44-33-77t-77-33-77 33-33 77q0 46 32 78t78 32z m350 0q46 0 78-32t32-78q0-44-32-77t-78-33-78 33-32 77q0 46 32 78t78 32z" horiz-adv-x="920" />

<glyph glyph-name="mail" unicode="&#xe836;" d="M0 850v-1000h1470v1000z m735-597l-622 536h1244z m-233 119l-441-420v801z m465 0l442 381v-801z m-417-40l185-159 185 159 443-421h-1256z" horiz-adv-x="1470" />

<glyph glyph-name="facebook" unicode="&#xe837;" d="M535 843v-147h-87q-48 0-65-20t-17-60v-106h164l-22-165h-142v-424h-171v424h-142v165h142v122q0 104 58 161t155 57q82 0 127-7z" horiz-adv-x="571.4" />

<glyph glyph-name="linkedin" unicode="&#xe838;" d="M195 501v-553h-184v553h184z m12 171q0-41-29-68t-75-27h-1q-46 0-74 27t-28 68q0 41 29 68t75 27 74-27 29-68z m650-407v-317h-183v296q0 59-23 92t-71 33q-35 0-58-19t-36-48q-6-17-6-45v-309h-184q1 223 1 361t0 165l-1 27h184v-80h-1q11 18 23 31t31 29 49 24 64 9q95 0 153-63t58-186z" horiz-adv-x="857.1" />

<glyph glyph-name="google" unicode="&#xe839;" d="M429 411h404q7-37 7-71 0-121-51-216t-145-149-215-54q-88 0-167 34t-137 91-91 137-34 167 34 167 91 137 137 91 167 34q167 0 287-113l-117-112q-68 67-170 67-72 0-133-37t-97-98-36-136 36-136 97-98 133-37q48 0 89 14t67 33 46 46 28 49 13 43h-243v147z" horiz-adv-x="857.1" />

<glyph glyph-name="edit" unicode="&#xe83a;" d="M842 816a116 116 0 0 1-82 34 117 117 0 0 1-84-34l-570-571a20 20 0 0 1-6-10l-99-359a19 19 0 0 1 6-20 20 20 0 0 1 14-6l6 1 358 99a21 21 0 0 1 9 5l572 571a117 117 0 0 1 0 166z m94-260l-556-557-230 231 556 556a74 74 0 0 0 54 22 74 74 0 0 0 52-22l124-124a75 75 0 0 0 0-106z m-806-366l210-210-289-80z" horiz-adv-x="1000" />

<glyph glyph-name="clock" unicode="&#xe83b;" d="M500-150a504 504 0 0 0-194 39 502 502 0 0 0-159 107 500 500 0 0 0-108 159 505 505 0 0 0-39 195 501 501 0 0 0 500 500 501 501 0 0 0 194-39 502 502 0 0 0 159-107 509 509 0 0 0 108-159 511 511 0 0 0 39-195 505 505 0 0 0-39-195 509 509 0 0 0-108-159 502 502 0 0 0-159-107 501 501 0 0 0-194-39z m0 959a459 459 0 0 1-458-459 456 456 0 0 1 36-179 461 461 0 0 1 99-145 450 450 0 0 1 145-99 455 455 0 0 1 178-36 459 459 0 0 1 459 459 455 455 0 0 1-36 178 466 466 0 0 1-99 146 476 476 0 0 1-146 99 452 452 0 0 1-178 35z m37-544h-280v42h238v385h42z" horiz-adv-x="1000" />

<glyph glyph-name="reposition" unicode="&#xe83c;" d="M997 363l-7 11-133 133a33 33 0 0 1-47-47l76-77h-353v353l77-76a33 33 0 0 1 47 47l-133 133-1 1-10 6-13 3h0l-13-3-10-6 0-1-134-133a33 33 0 1 1 47-47l77 76v-353h-353l76 77a33 33 0 1 1-47 47l-133-133 0-1-7-10-3-13v0l3-13 7-10 0 0 133-134a33 33 0 1 1 47 47l-76 77h353v-353l-77 76a33 33 0 0 1-47-47l134-133 10-8 13-2h0l13 3 11 7 133 133a33 33 0 0 1-47 47l-77-76v353h353l-76-77a33 33 0 0 1 47-47l133 134 8 10 2 13v0z" horiz-adv-x="1000" />

<glyph glyph-name="public-globe" unicode="&#xe83d;" d="M729 628l1-8-11-2-2-16h13l18 2 9 11-9 4-6 6-8 13-4 18-15-3-4-7v-7l7-5z m-13-6l1 10-9 3-13-3-9-14v-10h11z m-254-43l-3-7h-13v-6h3s0-2 0-4l8 1 5 3 2 6 6 1 3 5-6 2z m-34-12l0-7 9 1 1 7-6 4z m572-212c0 15-1 29-2 43a497 497 0 0 1-33 137c-2 3-3 6-4 10a501 501 0 0 1-94 145c-3 2-5 5-8 8-7 7-15 15-23 22a499 499 0 0 1-675-2 506 506 0 0 1-57-63 500 500 0 1 1 841-532 495 495 0 0 1 41 110c2 10 4 20 6 30a500 500 0 0 1 8 87c0 2 0 4 0 5z m-94 200l3 3c4-7 7-15 11-22l-5 0-9-1z m-72 87l0 23q11-13 22-26l-9-14-31 1-2 6z m-604 56v1h10l1 3h17v-7l-5-6h-23v9z m16-23s10 2 11 2 0-10 0-10l-22-1-5 5z m692-198h-37l-22 17-24-3v-14h-7l-8 6-41 10v26l-51-4-16-8h-21l-10 1-25-14v-26l-50-37 4-15h10l-3-15-7-3 0-39 44-50h19l1 3h34l10 9h20l10-10 29-3-4-39 33-57-17-32 1-15 13-14v-36l18-23v-31h15a459 459 0 0 0-778 469v14l16 20q9 16 19 31l0-8-19-23c-6-11-11-23-16-34v-26l19-10v-36l18-31 15-2 2 10-18 27-3 26h10l5-27 25-37-7-12 17-24 40-10v7l16-3-2-11 13-2 19-6 28-31 35-3 3-28-24-17-1-26-4-15 35-44 3-15s12-3 14-3 28-20 28-20v-79l10-2-7-37 16-21-3-36 21-37 27-24 28 0 2 8-19 17 1 8 3 11 1 10-14 1-6 9 11 10 1 9-12 3 1 8 17 3 28 13 9 17 28 36-6 29 9 15 26-1 18 14 6 55 19 25 4 16-18 6-12 19-40 1-33 12-1 23-11 18-29 1-17 26-15 7 0-8-27-1-10 14-28 6-23-27-37 6-3 41-27 5 11 20-3 11-35-23-22 3-8 17 5 18 12 22 28 14h54l0-16 20-9-2 28 14 14 28 19 2 13 28 29 30 17-2 2 20 19 7-2 4-4 8 8 1 1-8 1-9 3v8l5 4h10l5-2 4-8 5 1v1l1-1 14 2 2 7 8-2v-8l-8-5h0l2-8 25-8v0l6 1 0 11-20 9-1 5 17 6 1 16-18 11-1 27-24-12h-9l2 21-32 7-14-10v-31l-24-8-10-20-10-2v26l-23 3-12 8-4 17 41 23 20 7 2-14 11 1 1 6 11 2 0 2-5 3-1 7 14 1 9 9 1 1h0l2 2 30 4 14-11-35-19 44-10 6 15h19l7 13-14 3v16l-43 19-30-3-16-9 1-21-17 2-3 12 17 16-31 1-9-3-3-10 11-2-2-11-19-1-3-8-29-1a77 77 0 0 1-1 16l22 1 16 16-9 5-12-12-20 1-12 17h-26l-28-20h25l3-7-7-6 28-1 4-10-31 1-1 7-20 5-10 5-24 0a458 458 0 0 0 573-27l-5-9-22-9-9-9 2-12 11-1 7-17 19 8 3-22h-6l-15 2-17-3-17-23-24-4-3-20 10-3-3-13-24 5-21-5-5-12 4-25 13-6 21 0 14 1 5 12 22 29 15-3 15 13 2-10 36-24-4-6-16 1 6-9 10-2 12 5 0 14 5 2-5 5-24 13-6 18h20l6-7 17-14 1-18 18-19 6 26 13 6 2-21 12-13 24 1q7-18 12-37z m-665 146l12 6 11-3-4-15-12-3z m63-34v-10h-27l-10 3 2 7 13 5h18v-5z m13-14v-9l-7-4-8-2v15z m-8 4v11l10-9z m5-22v-9l-7-6h-14l2 10 7 0 1 4z m-37 18h15l-19-27-8 5 2 11z m62-15v-8h-14l-4 5v8h1z m-13 13l4 4 7-4-5-5z m587-119l1 2c1-3 2-5 2-8z m-867 90v-14c5 11 10 23 16 34z" horiz-adv-x="1000" />

<glyph glyph-name="camera-fill" unicode="&#xe83e;" d="M137-150h1000a136 136 0 0 1 136 137v571a136 136 0 0 1-136 137h-169l-114 116a141 141 0 0 1-96 39h-238a140 140 0 0 1-91-34l-121-121h-171a136 136 0 0 1-137-137v-571a136 136 0 0 1 137-137z m500 149a310 310 0 0 0-309 309 310 310 0 0 0 309 310 310 310 0 0 0 309-310 310 310 0 0 0-309-309z m0 84a227 227 0 0 1 226 225 227 227 0 0 1-226 226 227 227 0 0 1-226-226 227 227 0 0 1 226-225z" horiz-adv-x="1273" />

<glyph glyph-name="secury" unicode="&#xe83f;" d="M880 648l-376 200a19 19 0 0 1-18 0l-366-200a19 19 0 0 1-9-17v-262a542 542 0 0 1 324-495l51-23a19 19 0 0 1 15 0l57 25a541 541 0 0 1 331 499v256a19 19 0 0 1-9 17z m-196-222l-231-187a19 19 0 0 0-26 3l-99 115a19 19 0 0 0 29 25l87-102 216 175a19 19 0 0 0 24-29z m0 0" horiz-adv-x="1000" />

<glyph glyph-name="closed" unicode="&#xe840;" d="M174 389v212a210 210 0 0 0 211 211 210 210 0 0 0 210-211v-59h39v59a249 249 0 0 1-249 249 249 249 0 0 1-250-249v-212h-135v-539h769v539z m557-501h-692v462h692z" horiz-adv-x="769" />

<glyph glyph-name="phone" unicode="&#xe841;" d="M974 79l-203 135a59 59 0 0 1-79-13l-59-76a25 25 0 0 0-32-7l-11 6c-37 21-84 46-177 139s-118 140-139 177l-6 11a25 25 0 0 0 7 32l76 59a59 59 0 0 1 13 79l-135 203a59 59 0 0 1-80 18l-84-51a119 119 0 0 1-55-71c-30-111-7-303 275-585 225-225 392-285 507-285a295 295 0 0 1 78 10 119 119 0 0 1 71 55l51 84a59 59 0 0 1-18 80z m-11-63l-51-84a86 86 0 0 0-50-40c-103-28-282-5-553 267s-295 450-267 552a86 86 0 0 0 40 51l85 51a26 26 0 0 0 34-8l73-110 62-92a26 26 0 0 0-6-34l-76-59a58 58 0 0 1-15-75l6-11c21-39 48-88 144-184s146-124 185-145l11-6a58 58 0 0 1 75 16l59 75a26 26 0 0 0 34 6l202-135a25 25 0 0 0 8-35z" horiz-adv-x="1000" />

<glyph glyph-name="folder" unicode="&#xe842;" d="M950 658h-483v83a50 50 0 0 1-50 51h-367a50 50 0 0 1-50-51v-782a50 50 0 0 1 50-51h900a50 50 0 0 1 50 51v649a50 50 0 0 1-50 50z m17-699a17 17 0 0 0-17-17h-900a17 17 0 0 0-17 17v516h934z m-934 549v233a17 17 0 0 0 17 17h367a17 17 0 0 0 17-17v-116h516a17 17 0 0 0 17-17v-100z" horiz-adv-x="1000" />

<glyph glyph-name="minus" unicode="&#xe843;" d="M0 310h1000v80h-1000z" horiz-adv-x="1000" />

<glyph glyph-name="up-open-big" unicode="&#xe844;" d="M804 130l-372 358-370-358q-26-22-50 0-24 24 0 50l396 390q26 26 48 0l396-390q24-26 0-50-26-22-48 0z" horiz-adv-x="864" />

<glyph glyph-name="download-arrow" unicode="&#xe846;" d="M757 327c11 11 11 28 0 38-10 11-27 11-37 0l-193-192v636c0 15-12 27-27 27-15 0-27-12-27-27v-636l-192 192c-11 11-28 11-39 0-10-10-10-27 0-38l239-238c10-10 27-10 38 0l238 238z m189-174c0 15 12 26 27 26 15 0 27-11 27-26v-262c0-15-12-27-27-27h-946c-15 0-27 12-27 27v262c0 15 12 26 27 26s27-11 27-26v-236h892v236z" horiz-adv-x="1000" />

<glyph glyph-name="twitter" unicode="&#xf099;" d="M904 622q-37-54-90-93 0-8 0-23 0-73-21-145t-64-139-103-117-144-82-181-30q-151 0-276 81 19-2 43-2 126 0 224 77-59 1-105 36t-64 89q19-3 34-3 24 0 48 6-63 13-104 62t-41 115v2q38-21 82-23-37 25-59 64t-22 86q0 49 25 91 68-83 164-133t208-55q-5 21-5 41 0 75 53 127t127 53q79 0 132-57 61 12 115 44-21-64-80-100 52 6 104 28z" horiz-adv-x="928.6" />

<glyph glyph-name="instagram" unicode="&#xf16d;" d="M571 350q0 59-41 101t-101 42-101-42-42-101 42-101 101-42 101 42 41 101z m77 0q0-91-64-156t-155-64-156 64-64 156 64 156 156 64 155-64 64-156z m61 229q0-21-15-36t-37-15-36 15-15 36 15 36 36 15 37-15 15-36z m-280 123q-4 0-43 0t-59 0-54-2-57-5-40-11q-28-11-49-32t-33-49q-6-16-10-40t-6-58-1-53 0-59 0-43 0-43 0-59 1-53 6-58 10-40q12-28 33-49t49-32q16-6 40-11t57-5 54-2 59 0 43 0 42 0 59 0 54 2 58 5 39 11q28 11 50 32t32 49q6 16 10 40t6 58 1 53 0 59 0 43 0 43 0 59-1 53-6 58-10 40q-11 28-32 49t-50 32q-16 6-39 11t-58 5-54 2-59 0-42 0z m428-352q0-128-3-177-5-116-69-180t-179-69q-50-3-177-3t-177 3q-116 6-180 69t-69 180q-3 49-3 177t3 177q5 116 69 180t180 69q49 3 177 3t177-3q116-6 179-69t69-180q3-49 3-177z" horiz-adv-x="857.1" />
</font>
</defs>
</svg>
