<svg xmlns="http://www.w3.org/2000/svg" xmlns:xlink="http://www.w3.org/1999/xlink" width="45.851" height="52" viewBox="0 0 45.851 52"><defs><filter id="a" x="0" y="0" width="45.851" height="52" filterUnits="userSpaceOnUse"><feOffset dy="3" input="SourceAlpha"/><feGaussianBlur stdDeviation="3" result="b"/><feFlood flood-opacity="0.78"/><feComposite operator="in" in2="b"/><feComposite in="SourceGraphic"/></filter></defs><g transform="translate(-319 -475)"><g transform="matrix(1, 0, 0, 1, 319, 475)" filter="url(#a)"><g transform="translate(9 6)" fill="#fff"><path d="M 13.92557430267334 32.98432540893555 C 12.84431934356689 31.98293304443359 10.16762447357178 29.4316349029541 7.52123498916626 26.34595680236816 C 3.091455221176147 21.18086814880371 0.7500051856040955 16.88594818115234 0.7500051856040955 13.92551803588867 C 0.7500051856040955 10.40620803833008 2.120495080947876 7.09754753112793 4.609025001525879 4.609017848968506 C 7.097545146942139 2.120487689971924 10.40620517730713 0.749997615814209 13.92551517486572 0.749997615814209 C 17.44482612609863 0.749997615814209 20.75348472595215 2.120487689971924 23.24201583862305 4.609017848968506 C 25.73054504394531 7.09754753112793 27.10103607177734 10.40620803833008 27.10103607177734 13.92551803588867 C 27.10103607177734 16.88848686218262 24.75587463378906 21.1877269744873 20.31909561157227 26.35843849182129 C 17.67392349243164 29.44116973876953 15.00489234924316 31.98490142822266 13.92557430267334 32.98432540893555 Z" stroke="none"/><path d="M 13.92551517486572 1.499996185302734 C 10.60653495788574 1.499996185302734 7.486215591430664 2.792478561401367 5.139345169067383 5.139347076416016 C 2.792474746704102 7.486217498779297 1.499994277954102 10.60653686523438 1.499994277954102 13.92551803588867 C 1.499994277954102 15.40813827514648 2.160945892333984 17.29672813415527 3.464475631713867 19.538818359375 C 4.570255279541016 21.44074630737305 6.12309455871582 23.56254768371582 8.079875946044922 25.84527778625488 C 10.35575294494629 28.50024604797363 12.65697956085205 30.7581672668457 13.92570304870605 31.95724487304688 C 15.18932914733887 30.76325035095215 17.47747039794922 28.51838493347168 19.74990463256836 25.87004852294922 C 21.71208572387695 23.58327865600586 23.26948547363281 21.45759773254395 24.37884521484375 19.55204772949219 C 25.68748474121094 17.3041877746582 26.35102462768555 15.41114807128906 26.35102462768555 13.92551803588867 C 26.35102462768555 10.60653686523438 25.05854415893555 7.486217498779297 22.7116756439209 5.139347076416016 C 20.36480522155762 2.792478561401367 17.24448394775391 1.499996185302734 13.92551517486572 1.499996185302734 M 13.92551517486572 -3.814697265625e-06 C 21.61636543273926 -3.814697265625e-06 27.85102462768555 6.23466682434082 27.85102462768555 13.92551803588867 C 27.85102462768555 21.61636734008789 13.92551517486572 34.00001907348633 13.92551517486572 34.00001907348633 C 13.92551517486572 34.00001907348633 -5.7220458984375e-06 21.61636734008789 -5.7220458984375e-06 13.92551803588867 C -5.7220458984375e-06 6.23466682434082 6.234664916992188 -3.814697265625e-06 13.92551517486572 -3.814697265625e-06 Z" stroke="none" fill="#b463c2"/></g></g><g transform="translate(334.447 486.928)"><g transform="translate(0.053 0.072)"><path d="M.41,5.135a.865.865,0,0,0,.377.082A1.14,1.14,0,0,0,1.03,5.19a.786.786,0,0,0,.685-.933h0L1.166,1.738l2.31-.5L3.882,3.1a1.091,1.091,0,0,0-.434.013.774.774,0,0,0-.694.916.744.744,0,0,0,.771.589,1.13,1.13,0,0,0,.242-.027.786.786,0,0,0,.683-.933h0L3.718.3a.387.387,0,0,0-.461-.3L.853.533a.387.387,0,0,0-.3.46l.59,2.7a1.091,1.091,0,0,0-.434.013A.992.992,0,0,0,.17,4a.694.694,0,0,0-.151.622.719.719,0,0,0,.392.509Zm3.262-.967c-.1.021-.428.069-.493-.231-.058-.265.2-.363.361-.4a.8.8,0,0,1,.168-.02.287.287,0,0,1,.316.233h0C4.09,4.052,3.771,4.146,3.672,4.168ZM3.3.446l.079.364-2.309.5L.991.948ZM.5,4.293a.574.574,0,0,1,.307-.157.8.8,0,0,1,.168-.02.287.287,0,0,1,.316.233h0c.065.3-.253.393-.352.415A.532.532,0,0,1,.6,4.743a.281.281,0,0,1-.153-.21A.254.254,0,0,1,.5,4.293Zm0,0" transform="translate(0.002 0.002)" fill="#b463c2" stroke="#b463c2" stroke-width="0.1"/><path d="M22.089,18.505a.384.384,0,0,0-.214-.2l-2.295-.892a.387.387,0,0,0-.5.221l-1,2.581a1.077,1.077,0,0,0-.368-.231.992.992,0,0,0-.614-.054.694.694,0,0,0-.471.434.719.719,0,0,0,.045.64.951.951,0,0,0,.487.388,1.054,1.054,0,0,0,.381.075.729.729,0,0,0,.705-.475l.934-2.4,2.2.856-.694,1.785A1.078,1.078,0,0,0,20.317,21a.774.774,0,0,0-1.085.38.719.719,0,0,0,.046.64.952.952,0,0,0,.486.388,1.056,1.056,0,0,0,.381.075A.729.729,0,0,0,20.851,22l1.244-3.2A.385.385,0,0,0,22.089,18.505Zm-4.776,2.479a.531.531,0,0,1-.27-.2.282.282,0,0,1-.014-.26.255.255,0,0,1,.178-.171.378.378,0,0,1,.1-.012.687.687,0,0,1,.244.05.552.552,0,0,1,.273.2.258.258,0,0,1,.012.248c-.111.284-.429.186-.524.149Zm2.02-2.8.135-.347,2.2.856-.135.347ZM19.923,22a.531.531,0,0,1-.27-.2.281.281,0,0,1-.014-.26.273.273,0,0,1,.276-.184.7.7,0,0,1,.245.053.552.552,0,0,1,.273.2.258.258,0,0,1,.012.248c-.112.281-.429.183-.524.145Zm0,0" transform="translate(-7.248 -7.603)" fill="#b463c2" stroke="#b463c2" stroke-width="0.1"/><path d="M6.4,18.47a3.715,3.715,0,0,1-4.743-.741A4.14,4.14,0,0,1,.436,14.8a2.964,2.964,0,0,1,.9-2.123,2.9,2.9,0,0,1,1.474-.737,3.527,3.527,0,0,0,1.965-1.072.218.218,0,1,0-.32-.3,3.1,3.1,0,0,1-1.725.941,3.338,3.338,0,0,0-1.7.849A3.4,3.4,0,0,0,0,14.789a4.577,4.577,0,0,0,1.344,3.244A4.617,4.617,0,0,0,4.6,19.466a3.47,3.47,0,0,0,2.056-.645.218.218,0,0,0-.256-.352Zm0,0" transform="translate(0.001 -4.591)" fill="#b463c2" stroke="#b463c2" stroke-width="0.1"/><path d="M13.448,9.5a2.132,2.132,0,0,0,.629-1.7,3.477,3.477,0,0,0-.572-1.606L14.893,4.8a.218.218,0,0,0-.308-.308L10.732,8.349a1.678,1.678,0,0,0-.922-.925l4.538-4.538.925.925-.026.026a.218.218,0,0,0,.308.308l.055-.055a.358.358,0,0,0,.108.017h.011a.361.361,0,0,0,.259-.122l.231-.263.248.248a.218.218,0,0,0,.308-.308l-.268-.268.364-.413.259.259a.218.218,0,0,0,.308-.308l-.279-.279.361-.41.187.188a.218.218,0,0,0,.308-.308l-.207-.207.261-.3a.362.362,0,0,0-.015-.5L17.035.105a.361.361,0,0,0-.5-.016l-.3.262-.2-.207a.218.218,0,1,0-.308.308l.188.187L15.507,1,15.226.72a.218.218,0,0,0-.308.308l.262.261-.412.365-.27-.266a.218.218,0,1,0-.308.308l.248.248-.263.231a.359.359,0,0,0-.107.374l-2.1,2.1c-1.225-.787-2.459-.793-3.25,0a2.88,2.88,0,0,0-.477.607.218.218,0,0,0,.378.216,2.46,2.46,0,0,1,.407-.515,2.115,2.115,0,0,1,2.628.008L9.31,7.308c-.041,0-.083,0-.125,0a1.67,1.67,0,1,0,1.666,1.67,1.053,1.053,0,0,0,0-.125l2.34-2.34a2.142,2.142,0,0,1-.05,2.677,2.125,2.125,0,0,1-.484.363,3.57,3.57,0,0,0-1.845,2.511,2.912,2.912,0,0,1-.516,1.209.218.218,0,0,0,.351.258,3.344,3.344,0,0,0,.595-1.388,3.14,3.14,0,0,1,1.626-2.208A2.563,2.563,0,0,0,13.448,9.5ZM16.777.463l.919.92L15.713,3.636l-1.19-1.19ZM10.058,9.847a1.235,1.235,0,1,1,.361-.873,1.235,1.235,0,0,1-.361.873Zm0,0" transform="translate(-3.285 0.002)" fill="#b463c2" stroke="#b463c2" stroke-width="0.1"/><path d="M3.123,17.119a.755.755,0,0,0,0,1.066L5.348,20.41a.754.754,0,0,0,1.067-1.064L4.19,17.119a.754.754,0,0,0-1.066,0Zm2.983,2.533a.318.318,0,1,1-.45.45L3.432,17.878a.318.318,0,0,1,.45-.45Zm0,0" transform="translate(-1.269 -7.391)" fill="#b463c2" stroke="#b463c2" stroke-width="0.1"/><path d="M18.94,7.478a.218.218,0,0,0,.154-.372l-.465-.465a.218.218,0,0,0-.308.308l.465.465A.217.217,0,0,0,18.94,7.478Zm0,0" transform="translate(-7.987 -2.877)" fill="#b463c2" stroke="#b463c2" stroke-width="0.1"/><path d="M17.794,8.624a.218.218,0,0,0,.154-.372l-.465-.465a.218.218,0,0,0-.308.308l.465.465A.217.217,0,0,0,17.794,8.624Zm0,0" transform="translate(-7.485 -3.377)" fill="#b463c2" stroke="#b463c2" stroke-width="0.1"/><path d="M16.648,9.766a.218.218,0,0,0,.154-.372l-.467-.465a.218.218,0,0,0-.308.308l.465.465A.217.217,0,0,0,16.648,9.766Zm0,0" transform="translate(-6.983 -3.877)" fill="#b463c2" stroke="#b463c2" stroke-width="0.1"/><path d="M15.505,10.911a.218.218,0,0,0,.154-.372l-.465-.465a.218.218,0,1,0-.308.308l.465.465A.217.217,0,0,0,15.505,10.911Zm0,0" transform="translate(-6.484 -4.378)" fill="#b463c2" stroke="#b463c2" stroke-width="0.1"/><path d="M13.741,11.216a.218.218,0,0,0,0,.308l.465.465a.218.218,0,1,0,.308-.308l-.465-.465a.218.218,0,0,0-.308,0Zm0,0" transform="translate(-5.983 -4.878)" fill="#b463c2" stroke="#b463c2" stroke-width="0.1"/><path d="M21.278,3.9a.218.218,0,1,0,0,.308A.218.218,0,0,0,21.278,3.9Zm0,0" transform="translate(-9.146 -1.678)" fill="#b463c2" stroke="#b463c2" stroke-width="0.1"/><path d="M22.207,4.824a.218.218,0,1,0,0,.308.218.218,0,0,0,0-.308Zm0,0" transform="translate(-9.552 -2.081)" fill="#b463c2" stroke="#b463c2" stroke-width="0.1"/><path d="M22.44,2.739a.218.218,0,1,0,0,.308A.218.218,0,0,0,22.44,2.739Zm0,0" transform="translate(-9.654 -1.169)" fill="#b463c2" stroke="#b463c2" stroke-width="0.1"/><path d="M23.37,3.661a.218.218,0,1,0,0,.308.218.218,0,0,0,0-.308Zm0,0" transform="translate(-10.061 -1.572)" fill="#b463c2" stroke="#b463c2" stroke-width="0.1"/><path d="M23.6,1.576a.218.218,0,1,0,0,.308A.218.218,0,0,0,23.6,1.576Zm0,0" transform="translate(-10.163 -0.66)" fill="#b463c2" stroke="#b463c2" stroke-width="0.1"/><path d="M24.533,2.5a.218.218,0,1,0,0,.308A.218.218,0,0,0,24.533,2.5Zm0,0" transform="translate(-10.569 -1.063)" fill="#b463c2" stroke="#b463c2" stroke-width="0.1"/></g></g></g></svg>