<svg xmlns="http://www.w3.org/2000/svg" xmlns:xlink="http://www.w3.org/1999/xlink" width="45.851" height="52" viewBox="0 0 45.851 52"><defs><filter id="a" x="0" y="0" width="45.851" height="52" filterUnits="userSpaceOnUse"><feOffset dy="3" input="SourceAlpha"/><feGaussianBlur stdDeviation="3" result="b"/><feFlood flood-opacity="0.78"/><feComposite operator="in" in2="b"/><feComposite in="SourceGraphic"/></filter><clipPath id="c"><rect width="14.88" height="14.88" transform="translate(427 931)" fill="#fff"/></clipPath></defs><g transform="translate(-222.876 -472.199)"><g transform="matrix(1, 0, 0, 1, 222.88, 472.2)" filter="url(#a)"><path d="M13.926,0A13.926,13.926,0,0,1,27.851,13.926C27.851,21.616,13.926,34,13.926,34S0,21.616,0,13.926A13.926,13.926,0,0,1,13.926,0Z" transform="translate(9 6)" fill="#dcc158"/></g><g transform="translate(-188.624 -446.801)" clip-path="url(#c)"><g transform="translate(137.381 649.314)"><g transform="translate(289.621 281.686)"><path d="M14.792.084a.291.291,0,0,0-.3-.067L2.42,4.321a1.587,1.587,0,0,0-2.3,1.962,15.582,15.582,0,0,0,3.394,5.08,15.581,15.581,0,0,0,5.08,3.394,1.587,1.587,0,0,0,2.068-2.095L14.862.385a.291.291,0,0,0-.07-.3ZM4.248,4.286,5.527,3.83a.74.74,0,1,1-1.279.456Zm5.887,9.388a1.009,1.009,0,0,1-1.318.546A14.977,14.977,0,0,1,.658,6.06a1.008,1.008,0,0,1,1.863-.772A12.993,12.993,0,0,0,5.353,9.526,12.993,12.993,0,0,0,9.59,12.357,1.009,1.009,0,0,1,10.135,13.674ZM12.717,4.86a.749.749,0,0,1-.079-.005.74.74,0,1,1,.536-1.33Zm.65-1.9a1.322,1.322,0,1,0-.843,2.465l-.578,1.689-.664-.51a.291.291,0,1,0-.354.461l.82.629-1.5,4.392a1.583,1.583,0,0,0-.433-.268A12.4,12.4,0,0,1,3.058,5.066a1.587,1.587,0,0,0-.163-.3l.778-.277A1.323,1.323,0,0,0,4.814,5.648a1.339,1.339,0,0,0,.175.011A1.322,1.322,0,0,0,6.1,3.625L9.712,2.336l.137.33a.291.291,0,1,0,.537-.222l-.125-.3L14.117.765Z" fill="#fff"/><g transform="translate(2.602 7.66)"><path d="M4.006,10.349l0-.006a.291.291,0,1,0,0,.006Z" transform="translate(-3.47 -10.213)" fill="#fff"/></g><g transform="translate(1.381 5.35)"><path d="M3.157,8.857A13.753,13.753,0,0,1,2.4,7.313a.291.291,0,1,0-.537.222,14.332,14.332,0,0,0,.789,1.61.291.291,0,1,0,.5-.288Z" transform="translate(-1.841 -7.133)" fill="#fff"/></g><g transform="translate(7.599 3.708)"><path d="M11.626,4.955a1.322,1.322,0,1,0,1.138,1.483,1.322,1.322,0,0,0-1.138-1.483Zm.562,1.407a.741.741,0,1,1-.638-.83.744.744,0,0,1,.638.83Z" transform="translate(-10.132 -4.943)" fill="#fff"/></g><g transform="translate(7.523 7.322)"><path d="M11.525,9.774a1.321,1.321,0,1,0,1.139,1.483,1.321,1.321,0,0,0-1.139-1.483Zm.562,1.407a.744.744,0,0,1-.733.645.754.754,0,0,1-.1-.006.741.741,0,0,1,.1-1.475.741.741,0,0,1,.737.836Z" transform="translate(-10.031 -9.763)" fill="#fff"/></g><g transform="translate(5.879 6.01)"><path d="M9.061,8.133l-.893-.118a.291.291,0,0,0-.076.576l.893.118a.291.291,0,0,0,.076-.576Z" transform="translate(-7.839 -8.013)" fill="#fff"/></g><g transform="translate(5.991 7.422)"><path d="M8.645,10.748l-.079-.6a.291.291,0,0,0-.576.076l.079.6a.291.291,0,0,0,.576-.076Z" transform="translate(-7.987 -9.896)" fill="#fff"/></g></g></g></g></g></svg>