<svg xmlns="http://www.w3.org/2000/svg" xmlns:xlink="http://www.w3.org/1999/xlink" width="45.851" height="52" viewBox="0 0 45.851 52"><defs><filter id="a" x="0" y="0" width="45.851" height="52" filterUnits="userSpaceOnUse"><feOffset dy="3" input="SourceAlpha"/><feGaussianBlur stdDeviation="3" result="b"/><feFlood flood-opacity="0.78"/><feComposite operator="in" in2="b"/><feComposite in="SourceGraphic"/></filter><clipPath id="c"><rect width="14.88" height="14.88" transform="translate(274 282.5)" fill="#fff"/></clipPath></defs><g transform="translate(-387.876 -475.199)"><g transform="matrix(1, 0, 0, 1, 387.88, 475.2)" filter="url(#a)"><path d="M13.926,0A13.926,13.926,0,0,1,27.851,13.926C27.851,21.616,13.926,34,13.926,34S0,21.616,0,13.926A13.926,13.926,0,0,1,13.926,0Z" transform="translate(9 6)" fill="#ef3d2d"/></g><g transform="translate(129.376 204.699)" clip-path="url(#c)"><g transform="translate(274 283.376)"><g transform="translate(12.046 1.502)"><path d="M16.482,3.2a.291.291,0,1,0,.291.291.291.291,0,0,0-.291-.291Z" transform="translate(-16.192 -3.196)" fill="#fff"/></g><path d="M13.847,2.387a3.578,3.578,0,0,0-2.709-1.209A4.2,4.2,0,0,0,8.1,2.468a5.15,5.15,0,0,0-.659.821,5.154,5.154,0,0,0-.659-.82A4.2,4.2,0,0,0,3.742,1.18,3.831,3.831,0,0,0,0,5.217c0,2.962,3.139,5.456,7.25,9.019a.291.291,0,0,0,.38,0c4.121-3.573,7.25-6.063,7.25-9.019a4.233,4.233,0,0,0-1.033-2.83ZM7.44,13.63C3.558,10.271.581,7.858.581,5.217A3.245,3.245,0,0,1,3.742,1.762a3.586,3.586,0,0,1,2.612,1.1A4.333,4.333,0,0,1,7.175,4a.291.291,0,0,0,.265.172h0A.291.291,0,0,0,7.7,4a4.334,4.334,0,0,1,.821-1.134,3.586,3.586,0,0,1,2.612-1.1A3.246,3.246,0,0,1,14.3,5.215C14.3,7.918,11.125,10.441,7.44,13.63Z" transform="translate(0 -1.178)" fill="#fff"/><g transform="translate(11.814 2.381)"><path d="M17.419,4.535a.291.291,0,1,0-.515.27,2.694,2.694,0,0,1,.3,1.23,4.631,4.631,0,0,1-1.258,2.8A.291.291,0,1,0,16.4,9.2a5.157,5.157,0,0,0,1.387-3.166,3.24,3.24,0,0,0-.366-1.5Z" transform="translate(-15.88 -4.379)" fill="#fff"/></g><g transform="translate(4.357 3.653)"><path d="M11.73,8.006H10.1V6.378a.291.291,0,0,0-.291-.291H8.068a.291.291,0,0,0-.291.291V8.006H6.148a.291.291,0,0,0-.291.291V10.04a.291.291,0,0,0,.291.291H7.775v1.627a.291.291,0,0,0,.291.291H9.81a.291.291,0,0,0,.291-.291V10.33h1.627a.291.291,0,0,0,.291-.291V8.3a.291.291,0,0,0-.288-.291Zm-.291,1.744H9.812a.291.291,0,0,0-.291.291v1.627H8.359V10.04a.291.291,0,0,0-.291-.291H6.441V8.587H8.068A.291.291,0,0,0,8.359,8.3V6.669H9.52V8.3a.291.291,0,0,0,.291.291h1.627Z" transform="translate(-5.857 -6.087)" fill="#fff"/></g></g></g></g></svg>