<svg xmlns="http://www.w3.org/2000/svg" xmlns:xlink="http://www.w3.org/1999/xlink" width="45.851" height="52" viewBox="0 0 45.851 52"><defs><filter id="a" x="0" y="0" width="45.851" height="52" filterUnits="userSpaceOnUse"><feOffset dy="3" input="SourceAlpha"/><feGaussianBlur stdDeviation="3" result="b"/><feFlood flood-opacity="0.78"/><feComposite operator="in" in2="b"/><feComposite in="SourceGraphic"/></filter><clipPath id="c"><rect width="14.88" height="14.88" transform="translate(427 931)" fill="#dcc158" stroke="#dcc158" stroke-width="0.1"/></clipPath></defs><g transform="translate(-222.876 -472.199)"><g transform="matrix(1, 0, 0, 1, 222.88, 472.2)" filter="url(#a)"><g transform="translate(9 6)" fill="#fff"><path d="M 13.92556762695312 32.98430633544922 C 12.84431266784668 31.9829158782959 10.16761779785156 29.43161773681641 7.521228313446045 26.34593963623047 C 3.091448545455933 21.18084907531738 0.7499985098838806 16.88594055175781 0.7499985098838806 13.92551040649414 C 0.7499985098838806 10.40620040893555 2.120488405227661 7.097539901733398 4.609018325805664 4.609020233154297 C 7.097548484802246 2.120490074157715 10.40620803833008 0.75 13.92550849914551 0.75 C 17.4448184967041 0.75 20.75347900390625 2.120490074157715 23.24199867248535 4.609020233154297 C 25.73052787780762 7.097539901733398 27.10101890563965 10.40620040893555 27.10101890563965 13.92551040649414 C 27.10101890563965 16.88847923278809 24.755859375 21.18770980834961 20.31907844543457 26.35843086242676 C 17.67391395568848 29.44115447998047 15.00488471984863 31.98488426208496 13.92556762695312 32.98430633544922 Z" stroke="none"/><path d="M 13.92550849914551 1.5 C 10.60652923583984 1.5 7.486207962036133 2.79248046875 5.139348983764648 5.139350891113281 C 2.792478561401367 7.486209869384766 1.499998092651367 10.60652923583984 1.499998092651367 13.92551040649414 C 1.499998092651367 15.40813064575195 2.160947799682617 17.29672050476074 3.464479446411133 19.53881072998047 C 4.570247650146484 21.44073867797852 6.123098373413086 23.56254005432129 8.079877853393555 25.84526062011719 C 10.35574913024902 28.50022888183594 12.65697383880615 30.75815010070801 13.92569637298584 31.95722770690918 C 15.18932342529297 30.76323318481445 17.47746467590332 28.51837158203125 19.74989891052246 25.87004089355469 C 21.71207809448242 23.58325958251953 23.26947784423828 21.45758056640625 24.37883758544922 19.55204010009766 C 25.68747901916504 17.30418014526367 26.35101890563965 15.41114044189453 26.35101890563965 13.92551040649414 C 26.35101890563965 10.60652923583984 25.05853843688965 7.486209869384766 22.71166801452637 5.139350891113281 C 20.36480903625488 2.79248046875 17.24448776245117 1.5 13.92550849914551 1.5 M 13.92550849914551 0 C 21.61635780334473 0 27.85101890563965 6.234659194946289 27.85101890563965 13.92551040649414 C 27.85101890563965 21.61635971069336 13.92550849914551 34 13.92550849914551 34 C 13.92550849914551 34 -1.9073486328125e-06 21.61635971069336 -1.9073486328125e-06 13.92551040649414 C -1.9073486328125e-06 6.234659194946289 6.234659194946289 0 13.92550849914551 0 Z" stroke="none" fill="#dcc158"/></g></g><g transform="translate(-188.624 -446.801)" clip-path="url(#c)"><g transform="translate(137.381 649.314)"><g transform="translate(289.621 281.686)"><path d="M14.792.084a.291.291,0,0,0-.3-.067L2.42,4.321a1.587,1.587,0,0,0-2.3,1.962,15.582,15.582,0,0,0,3.394,5.08,15.581,15.581,0,0,0,5.08,3.394,1.587,1.587,0,0,0,2.068-2.095L14.862.385a.291.291,0,0,0-.07-.3ZM4.248,4.286,5.527,3.83a.74.74,0,1,1-1.279.456Zm5.887,9.388a1.009,1.009,0,0,1-1.318.546A14.977,14.977,0,0,1,.658,6.06a1.008,1.008,0,0,1,1.863-.772A12.993,12.993,0,0,0,5.353,9.526,12.993,12.993,0,0,0,9.59,12.357,1.009,1.009,0,0,1,10.135,13.674ZM12.717,4.86a.749.749,0,0,1-.079-.005.74.74,0,1,1,.536-1.33Zm.65-1.9a1.322,1.322,0,1,0-.843,2.465l-.578,1.689-.664-.51a.291.291,0,1,0-.354.461l.82.629-1.5,4.392a1.583,1.583,0,0,0-.433-.268A12.4,12.4,0,0,1,3.058,5.066a1.587,1.587,0,0,0-.163-.3l.778-.277A1.323,1.323,0,0,0,4.814,5.648a1.339,1.339,0,0,0,.175.011A1.322,1.322,0,0,0,6.1,3.625L9.712,2.336l.137.33a.291.291,0,1,0,.537-.222l-.125-.3L14.117.765Z" fill="#dcc158" stroke="#dcc158" stroke-width="0.1"/><g transform="translate(2.602 7.66)"><path d="M4.006,10.349l0-.006a.291.291,0,1,0,0,.006Z" transform="translate(-3.47 -10.213)" fill="#dcc158" stroke="#dcc158" stroke-width="0.1"/></g><g transform="translate(1.381 5.35)"><path d="M3.157,8.857A13.753,13.753,0,0,1,2.4,7.313a.291.291,0,1,0-.537.222,14.332,14.332,0,0,0,.789,1.61.291.291,0,1,0,.5-.288Z" transform="translate(-1.841 -7.133)" fill="#dcc158" stroke="#dcc158" stroke-width="0.1"/></g><g transform="translate(7.599 3.708)"><path d="M11.626,4.955a1.322,1.322,0,1,0,1.138,1.483,1.322,1.322,0,0,0-1.138-1.483Zm.562,1.407a.741.741,0,1,1-.638-.83.744.744,0,0,1,.638.83Z" transform="translate(-10.132 -4.943)" fill="#dcc158" stroke="#dcc158" stroke-width="0.1"/></g><g transform="translate(7.523 7.322)"><path d="M11.525,9.774a1.321,1.321,0,1,0,1.139,1.483,1.321,1.321,0,0,0-1.139-1.483Zm.562,1.407a.744.744,0,0,1-.733.645.754.754,0,0,1-.1-.006.741.741,0,0,1,.1-1.475.741.741,0,0,1,.737.836Z" transform="translate(-10.031 -9.763)" fill="#dcc158" stroke="#dcc158" stroke-width="0.1"/></g><g transform="translate(5.879 6.01)"><path d="M9.061,8.133l-.893-.118a.291.291,0,0,0-.076.576l.893.118a.291.291,0,0,0,.076-.576Z" transform="translate(-7.839 -8.013)" fill="#dcc158" stroke="#dcc158" stroke-width="0.1"/></g><g transform="translate(5.991 7.422)"><path d="M8.645,10.748l-.079-.6a.291.291,0,0,0-.576.076l.079.6a.291.291,0,0,0,.576-.076Z" transform="translate(-7.987 -9.896)" fill="#dcc158" stroke="#dcc158" stroke-width="0.1"/></g></g></g></g></g></svg>