<svg xmlns="http://www.w3.org/2000/svg" xmlns:xlink="http://www.w3.org/1999/xlink" width="36.851" height="43" viewBox="0 0 36.851 43"><defs><filter id="a" x="0" y="0" width="36.851" height="43" filterUnits="userSpaceOnUse"><feOffset dy="1" input="SourceAlpha"/><feGaussianBlur stdDeviation="1.5" result="b"/><feFlood flood-opacity="0.78"/><feComposite operator="in" in2="b"/><feComposite in="SourceGraphic"/></filter><clipPath id="c"><rect width="14.88" height="14.88" fill="#3b86bd" stroke="#3b86bd" stroke-width="0.1"/></clipPath></defs><g transform="translate(-227.376 -474.699)"><g transform="matrix(1, 0, 0, 1, 227.38, 474.7)" filter="url(#a)"><g transform="translate(4.5 3.5)" fill="#fff"><path d="M 13.92556762695312 32.98430633544922 C 12.84431266784668 31.9829158782959 10.16761779785156 29.43161773681641 7.521228313446045 26.34593963623047 C 3.091448545455933 21.18084907531738 0.7499985098838806 16.88594055175781 0.7499985098838806 13.92551040649414 C 0.7499985098838806 10.40620040893555 2.120488405227661 7.097539901733398 4.609018325805664 4.609020233154297 C 7.097548484802246 2.120490074157715 10.40620803833008 0.75 13.92550849914551 0.75 C 17.4448184967041 0.75 20.75347900390625 2.120490074157715 23.24199867248535 4.609020233154297 C 25.73052787780762 7.097539901733398 27.10101890563965 10.40620040893555 27.10101890563965 13.92551040649414 C 27.10101890563965 16.88847923278809 24.755859375 21.18770980834961 20.31907844543457 26.35843086242676 C 17.67391395568848 29.44115447998047 15.00488471984863 31.98488426208496 13.92556762695312 32.98430633544922 Z" stroke="none"/><path d="M 13.92550849914551 1.5 C 10.60652923583984 1.5 7.486207962036133 2.79248046875 5.139348983764648 5.139350891113281 C 2.792478561401367 7.486209869384766 1.499998092651367 10.60652923583984 1.499998092651367 13.92551040649414 C 1.499998092651367 15.40813064575195 2.160947799682617 17.29672050476074 3.464479446411133 19.53881072998047 C 4.570247650146484 21.44073867797852 6.123098373413086 23.56254005432129 8.079877853393555 25.84526062011719 C 10.35574913024902 28.50022888183594 12.65697383880615 30.75815010070801 13.92569637298584 31.95722770690918 C 15.18932342529297 30.76323318481445 17.47746467590332 28.51837158203125 19.74989891052246 25.87004089355469 C 21.71207809448242 23.58325958251953 23.26947784423828 21.45758056640625 24.37883758544922 19.55204010009766 C 25.68747901916504 17.30418014526367 26.35101890563965 15.41114044189453 26.35101890563965 13.92551040649414 C 26.35101890563965 10.60652923583984 25.05853843688965 7.486209869384766 22.71166801452637 5.139350891113281 C 20.36480903625488 2.79248046875 17.24448776245117 1.5 13.92550849914551 1.5 M 13.92550849914551 0 C 21.61635780334473 0 27.85101890563965 6.234659194946289 27.85101890563965 13.92551040649414 C 27.85101890563965 21.61635971069336 13.92550849914551 34 13.92550849914551 34 C 13.92550849914551 34 -1.9073486328125e-06 21.61635971069336 -1.9073486328125e-06 13.92551040649414 C -1.9073486328125e-06 6.234659194946289 6.234659194946289 0 13.92550849914551 0 Z" stroke="none" fill="#3b86bd"/></g></g><g transform="translate(0.5)"><g transform="translate(237.876 484.199)" clip-path="url(#c)"><g transform="translate(0 5.456)"><path d="M1.984,6.366A1.984,1.984,0,1,0,3.968,8.35,1.984,1.984,0,0,0,1.984,6.366Zm0,3.472A1.488,1.488,0,1,1,3.472,8.35,1.488,1.488,0,0,1,1.984,9.838Z" transform="translate(0 -6.366)" fill="#3b86bd" stroke="#3b86bd" stroke-width="0.1"/><path d="M14.714,6.366A1.984,1.984,0,1,0,16.7,8.35a1.984,1.984,0,0,0-1.984-1.984Zm0,3.472A1.488,1.488,0,1,1,16.2,8.35a1.488,1.488,0,0,1-1.488,1.488Z" transform="translate(-1.818 -6.366)" fill="#3b86bd" stroke="#3b86bd" stroke-width="0.1"/><path d="M8.35,6.366A1.984,1.984,0,1,0,10.334,8.35,1.984,1.984,0,0,0,8.35,6.366Zm0,3.472A1.488,1.488,0,1,1,9.838,8.35,1.488,1.488,0,0,1,8.35,9.838Z" transform="translate(-0.91 -6.366)" fill="#3b86bd" stroke="#3b86bd" stroke-width="0.1"/></g></g></g></g></svg>