<svg xmlns="http://www.w3.org/2000/svg" xmlns:xlink="http://www.w3.org/1999/xlink" width="45.851" height="52" viewBox="0 0 45.851 52"><defs><filter id="a" x="0" y="0" width="45.851" height="52" filterUnits="userSpaceOnUse"><feOffset dy="3" input="SourceAlpha"/><feGaussianBlur stdDeviation="3" result="b"/><feFlood flood-opacity="0.78"/><feComposite operator="in" in2="b"/><feComposite in="SourceGraphic"/></filter><clipPath id="c"><rect width="14.88" height="14.88" fill="#166aa5"/></clipPath></defs><g transform="translate(15.5 12)"><g transform="matrix(1, 0, 0, 1, -15.5, -12)" filter="url(#a)"><g transform="translate(9 6)" fill="#fff"><path d="M 13.92556762695312 32.98430633544922 C 12.84431266784668 31.9829158782959 10.16761779785156 29.43161773681641 7.521228313446045 26.34593963623047 C 3.091448545455933 21.18084907531738 0.7499985098838806 16.88594055175781 0.7499985098838806 13.92551040649414 C 0.7499985098838806 10.40620040893555 2.120488405227661 7.097539901733398 4.609018325805664 4.609020233154297 C 7.097548484802246 2.120490074157715 10.40620803833008 0.75 13.92550849914551 0.75 C 17.4448184967041 0.75 20.75347900390625 2.120490074157715 23.24199867248535 4.609020233154297 C 25.73052787780762 7.097539901733398 27.10101890563965 10.40620040893555 27.10101890563965 13.92551040649414 C 27.10101890563965 16.88847923278809 24.755859375 21.18770980834961 20.31907844543457 26.35843086242676 C 17.67391395568848 29.44115447998047 15.00488471984863 31.98488426208496 13.92556762695312 32.98430633544922 Z" stroke="none"/><path d="M 13.92550849914551 1.5 C 10.60652923583984 1.5 7.486207962036133 2.79248046875 5.139348983764648 5.139350891113281 C 2.792478561401367 7.486209869384766 1.499998092651367 10.60652923583984 1.499998092651367 13.92551040649414 C 1.499998092651367 15.40813064575195 2.160947799682617 17.29672050476074 3.464479446411133 19.53881072998047 C 4.570247650146484 21.44073867797852 6.123098373413086 23.56254005432129 8.079877853393555 25.84526062011719 C 10.35574913024902 28.50022888183594 12.65697383880615 30.75815010070801 13.92569637298584 31.95722770690918 C 15.18932342529297 30.76323318481445 17.47746467590332 28.51837158203125 19.74989891052246 25.87004089355469 C 21.71207809448242 23.58325958251953 23.26947784423828 21.45758056640625 24.37883758544922 19.55204010009766 C 25.68747901916504 17.30418014526367 26.35101890563965 15.41114044189453 26.35101890563965 13.92551040649414 C 26.35101890563965 10.60652923583984 25.05853843688965 7.486209869384766 22.71166801452637 5.139350891113281 C 20.36480903625488 2.79248046875 17.24448776245117 1.5 13.92550849914551 1.5 M 13.92550849914551 0 C 21.61635780334473 0 27.85101890563965 6.234659194946289 27.85101890563965 13.92551040649414 C 27.85101890563965 21.61635971069336 13.92550849914551 34 13.92550849914551 34 C 13.92550849914551 34 -1.9073486328125e-06 21.61635971069336 -1.9073486328125e-06 13.92551040649414 C -1.9073486328125e-06 6.234659194946289 6.234659194946289 0 13.92550849914551 0 Z" stroke="none" fill="#166aa5"/></g></g><g clip-path="url(#c)"><g transform="translate(0.451 0.014)"><path d="M7.931,8.661,12.8,2.835l1.109-1.29a.291.291,0,0,0-.22-.48H2.488L1.707.119A.291.291,0,0,0,1.26.49l.474.573H.291a.291.291,0,0,0-.222.478l1.091,1.29h0L6.031,8.659a1.243,1.243,0,0,0,.224.209v4.156l-1.444.868a.54.54,0,0,0,.279,1h3.8a.54.54,0,0,0,.278-1l-1.444-.866V8.859a1.234,1.234,0,0,0,.208-.2Zm5.125-7.016-.611.711H3.557l-.588-.711Zm-10.842,0,.589.711H1.52l-.6-.712ZM2.007,2.938H3.283L5.124,5.163A1.22,1.22,0,0,0,6.635,6.989l.725.876a.291.291,0,0,0,.446-.371l-.726-.877A1.22,1.22,0,0,0,5.57,4.792L4.038,2.938h7.92L7.485,8.288a.656.656,0,0,1-1.006,0ZM6.1,6.53a.639.639,0,1,1,.639-.639A.639.639,0,0,1,6.1,6.53ZM7.143,9.094v4.1a.291.291,0,0,0,.141.248l1.457.873H5.24L6.7,13.439a.291.291,0,0,0,.141-.248V9.1A1.24,1.24,0,0,0,7.143,9.094Zm0,0" transform="translate(-0.001 -0.028)" fill="#166aa5"/><path d="M23.059,11.635a.291.291,0,0,0,.409-.038l1.317-1.587L24.795,10a.291.291,0,0,0,.034-.41.3.3,0,0,0-.454,0l-1.354,1.629a.291.291,0,0,0,.038.414Zm0,0" transform="translate(-14.415 -5.973)" fill="#166aa5"/><path d="M21.018,16.947a.291.291,0,1,0-.172-.334A.291.291,0,0,0,21.018,16.947Zm0,0" transform="translate(-13.087 -10.306)" fill="#166aa5"/></g></g></g></svg>