<svg xmlns="http://www.w3.org/2000/svg" xmlns:xlink="http://www.w3.org/1999/xlink" width="45.851" height="52" viewBox="0 0 45.851 52"><defs><filter id="a" x="0" y="0" width="45.851" height="52" filterUnits="userSpaceOnUse"><feOffset dy="3" input="SourceAlpha"/><feGaussianBlur stdDeviation="3" result="b"/><feFlood flood-opacity="0.78"/><feComposite operator="in" in2="b"/><feComposite in="SourceGraphic"/></filter><clipPath id="c"><rect width="14.88" height="14.88" fill="#fff"/></clipPath></defs><g transform="translate(15.5 12)"><g transform="matrix(1, 0, 0, 1, -15.5, -12)" filter="url(#a)"><path d="M13.926,0A13.926,13.926,0,0,1,27.851,13.926C27.851,21.616,13.926,34,13.926,34S0,21.616,0,13.926A13.926,13.926,0,0,1,13.926,0Z" transform="translate(9 6)" fill="#166aa5"/></g><g clip-path="url(#c)"><g transform="translate(0.451 0.014)"><path d="M7.931,8.661,12.8,2.835l1.109-1.29a.291.291,0,0,0-.22-.48H2.488L1.707.119A.291.291,0,0,0,1.26.49l.474.573H.291a.291.291,0,0,0-.222.478l1.091,1.29h0L6.031,8.659a1.243,1.243,0,0,0,.224.209v4.156l-1.444.868a.54.54,0,0,0,.279,1h3.8a.54.54,0,0,0,.278-1l-1.444-.866V8.859a1.234,1.234,0,0,0,.208-.2Zm5.125-7.016-.611.711H3.557l-.588-.711Zm-10.842,0,.589.711H1.52l-.6-.712ZM2.007,2.938H3.283L5.124,5.163A1.22,1.22,0,0,0,6.635,6.989l.725.876a.291.291,0,0,0,.446-.371l-.726-.877A1.22,1.22,0,0,0,5.57,4.792L4.038,2.938h7.92L7.485,8.288a.656.656,0,0,1-1.006,0ZM6.1,6.53a.639.639,0,1,1,.639-.639A.639.639,0,0,1,6.1,6.53ZM7.143,9.094v4.1a.291.291,0,0,0,.141.248l1.457.873H5.24L6.7,13.439a.291.291,0,0,0,.141-.248V9.1A1.24,1.24,0,0,0,7.143,9.094Zm0,0" transform="translate(-0.001 -0.028)" fill="#fff"/><path d="M23.059,11.635a.291.291,0,0,0,.409-.038l1.317-1.587L24.795,10a.291.291,0,0,0,.034-.41.3.3,0,0,0-.454,0l-1.354,1.629a.291.291,0,0,0,.038.414Zm0,0" transform="translate(-14.415 -5.973)" fill="#fff"/><path d="M21.018,16.947a.291.291,0,1,0-.172-.334A.291.291,0,0,0,21.018,16.947Zm0,0" transform="translate(-13.087 -10.306)" fill="#fff"/></g></g></g></svg>