<svg xmlns="http://www.w3.org/2000/svg" xmlns:xlink="http://www.w3.org/1999/xlink" width="45.851" height="52" viewBox="0 0 45.851 52"><defs><filter id="a" x="0" y="0" width="45.851" height="52" filterUnits="userSpaceOnUse"><feOffset dy="3" input="SourceAlpha"/><feGaussianBlur stdDeviation="3" result="b"/><feFlood flood-opacity="0.78"/><feComposite operator="in" in2="b"/><feComposite in="SourceGraphic"/></filter><clipPath id="c"><rect width="14.88" height="14.88" transform="translate(267 283)" fill="#fff" stroke="#707070" stroke-width="0.5"/></clipPath></defs><g transform="translate(-607.5 -925)"><g transform="matrix(1, 0, 0, 1, 607.5, 925)" filter="url(#a)"><path d="M13.926,0A13.926,13.926,0,0,1,27.851,13.926C27.851,21.616,13.926,34,13.926,34S0,21.616,0,13.926A13.926,13.926,0,0,1,13.926,0Z" transform="translate(9 6)" fill="#6db4b0"/></g><g transform="translate(356 654)" clip-path="url(#c)"><path d="M14.136,2.232H10.912V1.24A1.24,1.24,0,0,0,9.672,0H5.208a1.24,1.24,0,0,0-1.24,1.24v.992H.744A.744.744,0,0,0,0,2.976V8.5a.747.747,0,0,0,.5.7v3.451a.744.744,0,0,0,.744.744h12.4a.744.744,0,0,0,.744-.744V9.2a.747.747,0,0,0,.5-.7V2.976A.744.744,0,0,0,14.136,2.232ZM4.464,1.24A.744.744,0,0,1,5.208.5H9.672a.744.744,0,0,1,.744.744v.992h-.5V1.24A.248.248,0,0,0,9.672.992H5.208a.248.248,0,0,0-.248.248v.992h-.5Zm4.96.992H5.456V1.488H9.424Zm4.464,10.416a.248.248,0,0,1-.248.248H1.24a.248.248,0,0,1-.248-.248V9.282l5.456.752v.63a.744.744,0,0,0,.744.744h.5a.744.744,0,0,0,.744-.744v-.63l5.456-.752ZM7.936,10.664a.248.248,0,0,1-.248.248h-.5a.248.248,0,0,1-.248-.248V9.176a.248.248,0,0,1,.248-.248h.5a.248.248,0,0,1,.248.248ZM14.384,8.5a.248.248,0,0,1-.213.248l-.069.009-5.67.78V9.176a.744.744,0,0,0-.744-.744h-.5a.744.744,0,0,0-.744.744v.358L.709,8.74A.248.248,0,0,1,.5,8.492V2.976a.248.248,0,0,1,.248-.248H14.136a.248.248,0,0,1,.248.248Zm0,0" transform="translate(267 283.744)" fill="#fff" stroke="#fff" stroke-width="0.05"/></g></g></svg>