<svg xmlns="http://www.w3.org/2000/svg" xmlns:xlink="http://www.w3.org/1999/xlink" width="45.851" height="52" viewBox="0 0 45.851 52"><defs><filter id="a" x="0" y="0" width="45.851" height="52" filterUnits="userSpaceOnUse"><feOffset dy="3" input="SourceAlpha"/><feGaussianBlur stdDeviation="3" result="b"/><feFlood flood-opacity="0.78"/><feComposite operator="in" in2="b"/><feComposite in="SourceGraphic"/></filter><clipPath id="c"><rect width="14.88" height="14.88" transform="translate(267 283)" fill="#6db4b0"/></clipPath></defs><g transform="translate(-607.5 -925)"><g transform="matrix(1, 0, 0, 1, 607.5, 925)" filter="url(#a)"><g transform="translate(9 6)" fill="#fff"><path d="M 13.92556762695312 32.98430633544922 C 12.84431266784668 31.9829158782959 10.16761779785156 29.43161773681641 7.521228313446045 26.34593963623047 C 3.091448545455933 21.18084907531738 0.7499985098838806 16.88594055175781 0.7499985098838806 13.92551040649414 C 0.7499985098838806 10.40620040893555 2.120488405227661 7.097539901733398 4.609018325805664 4.609020233154297 C 7.097548484802246 2.120490074157715 10.40620803833008 0.75 13.92550849914551 0.75 C 17.4448184967041 0.75 20.75347900390625 2.120490074157715 23.24199867248535 4.609020233154297 C 25.73052787780762 7.097539901733398 27.10101890563965 10.40620040893555 27.10101890563965 13.92551040649414 C 27.10101890563965 16.88847923278809 24.755859375 21.18770980834961 20.31907844543457 26.35843086242676 C 17.67391395568848 29.44115447998047 15.00488471984863 31.98488426208496 13.92556762695312 32.98430633544922 Z" stroke="none"/><path d="M 13.92550849914551 1.5 C 10.60652923583984 1.5 7.486207962036133 2.79248046875 5.139348983764648 5.139350891113281 C 2.792478561401367 7.486209869384766 1.499998092651367 10.60652923583984 1.499998092651367 13.92551040649414 C 1.499998092651367 15.40813064575195 2.160947799682617 17.29672050476074 3.464479446411133 19.53881072998047 C 4.570247650146484 21.44073867797852 6.123098373413086 23.56254005432129 8.079877853393555 25.84526062011719 C 10.35574913024902 28.50022888183594 12.65697383880615 30.75815010070801 13.92569637298584 31.95722770690918 C 15.18932342529297 30.76323318481445 17.47746467590332 28.51837158203125 19.74989891052246 25.87004089355469 C 21.71207809448242 23.58325958251953 23.26947784423828 21.45758056640625 24.37883758544922 19.55204010009766 C 25.68747901916504 17.30418014526367 26.35101890563965 15.41114044189453 26.35101890563965 13.92551040649414 C 26.35101890563965 10.60652923583984 25.05853843688965 7.486209869384766 22.71166801452637 5.139350891113281 C 20.36480903625488 2.79248046875 17.24448776245117 1.5 13.92550849914551 1.5 M 13.92550849914551 0 C 21.61635780334473 0 27.85101890563965 6.234659194946289 27.85101890563965 13.92551040649414 C 27.85101890563965 21.61635971069336 13.92550849914551 34 13.92550849914551 34 C 13.92550849914551 34 -1.9073486328125e-06 21.61635971069336 -1.9073486328125e-06 13.92551040649414 C -1.9073486328125e-06 6.234659194946289 6.234659194946289 0 13.92550849914551 0 Z" stroke="none" fill="#6db4b0"/></g></g><g transform="translate(356 654)" clip-path="url(#c)"><path d="M14.136,2.232H10.912V1.24A1.24,1.24,0,0,0,9.672,0H5.208a1.24,1.24,0,0,0-1.24,1.24v.992H.744A.744.744,0,0,0,0,2.976V8.5a.747.747,0,0,0,.5.7v3.451a.744.744,0,0,0,.744.744h12.4a.744.744,0,0,0,.744-.744V9.2a.747.747,0,0,0,.5-.7V2.976A.744.744,0,0,0,14.136,2.232ZM4.464,1.24A.744.744,0,0,1,5.208.5H9.672a.744.744,0,0,1,.744.744v.992h-.5V1.24A.248.248,0,0,0,9.672.992H5.208a.248.248,0,0,0-.248.248v.992h-.5Zm4.96.992H5.456V1.488H9.424Zm4.464,10.416a.248.248,0,0,1-.248.248H1.24a.248.248,0,0,1-.248-.248V9.282l5.456.752v.63a.744.744,0,0,0,.744.744h.5a.744.744,0,0,0,.744-.744v-.63l5.456-.752ZM7.936,10.664a.248.248,0,0,1-.248.248h-.5a.248.248,0,0,1-.248-.248V9.176a.248.248,0,0,1,.248-.248h.5a.248.248,0,0,1,.248.248ZM14.384,8.5a.248.248,0,0,1-.213.248l-.069.009-5.67.78V9.176a.744.744,0,0,0-.744-.744h-.5a.744.744,0,0,0-.744.744v.358L.709,8.74A.248.248,0,0,1,.5,8.492V2.976a.248.248,0,0,1,.248-.248H14.136a.248.248,0,0,1,.248.248Zm0,0" transform="translate(267 283.744)" fill="#6db4b0" stroke="#6db4b0" stroke-width="0.1"/></g></g></svg>